<svg width="44" height="31" viewBox="0 0 44 31" fill="none" xmlns="http://www.w3.org/2000/svg">
<path d="M2 13.5C0.895428 13.5 -3.8147e-06 14.3954 -3.8147e-06 15.5C-3.8147e-06 16.6046 0.895428 17.5 2 17.5L2 13.5ZM43.4142 16.9142C44.1953 16.1332 44.1953 14.8668 43.4142 14.0858L30.6863 1.35784C29.9052 0.576787 28.6389 0.576787 27.8578 1.35784C27.0768 2.13889 27.0768 3.40522 27.8578 4.18627L39.1716 15.5L27.8578 26.8137C27.0768 27.5948 27.0768 28.8611 27.8578 29.6422C28.6389 30.4232 29.9052 30.4232 30.6863 29.6422L43.4142 16.9142ZM2 17.5L42 17.5V13.5L2 13.5L2 17.5Z" fill="#028DD8"/>
</svg>
