<svg width="31" height="20" viewBox="0 0 31 20" fill="none" xmlns="http://www.w3.org/2000/svg">
<path d="M2.19531 11.3556C1.44719 11.3556 0.840712 10.7491 0.840712 10.001C0.840712 9.25285 1.44719 8.64638 2.19531 8.64638V11.3556ZM29.6166 9.04313C30.1456 9.57213 30.1456 10.4298 29.6166 10.9588L20.9959 19.5794C20.4669 20.1085 19.6093 20.1085 19.0802 19.5794C18.5512 19.0504 18.5512 18.1928 19.0802 17.6638L26.743 10.001L19.0802 2.3382C18.5512 1.80919 18.5512 0.951509 19.0802 0.422505C19.6093 -0.1065 20.4669 -0.1065 20.9959 0.422505L29.6166 9.04313ZM2.19531 8.64638L28.6587 8.64638V11.3556L2.19531 11.3556V8.64638Z" fill="white"/>
</svg>
