<svg width="20" height="20" viewBox="0 0 20 20" fill="none" xmlns="http://www.w3.org/2000/svg">
<path d="M20 3.4C20 3.17909 19.8209 3 19.6 3H0.4C0.179086 3 0 3.17909 0 3.4V6.15072C0 6.37164 0.179086 6.55072 0.4 6.55072H19.6C19.8209 6.55072 20 6.37164 20 6.15072V3.4Z" fill="#013A59"/>
<path d="M12.9842 8.47246C12.9842 8.25155 12.8051 8.07246 12.5842 8.07246H0.4C0.179086 8.07246 0 8.25155 0 8.47246V16.6C0 16.8209 0.179086 17 0.4 17H12.5842C12.8051 17 12.9842 16.8209 12.9842 16.6V8.47246Z" fill="#013A59"/>
<path opacity="0.3" d="M15 8.4C15 8.17909 15.1791 8 15.4 8H19.6C19.8209 8 20 8.17909 20 8.4V16.6C20 16.8209 19.8209 17 19.6 17H15.4C15.1791 17 15 16.8209 15 16.6V8.4Z" fill="#013A59"/>
</svg>
