<svg width="20" height="20" viewBox="0 0 20 20" fill="none" xmlns="http://www.w3.org/2000/svg">
<path d="M0 3.4C0 3.17909 0.179086 3 0.4 3H17.6C17.8209 3 18 3.17909 18 3.4V6.1814C18 6.40231 17.8209 6.5814 17.6 6.5814H0.4C0.179086 6.5814 0 6.40231 0 6.1814V3.4Z" fill="#013A59"/>
<path d="M0 8.6093C0 8.38839 0.179085 8.2093 0.399999 8.2093H10.3791C10.6 8.2093 10.7791 8.38839 10.7791 8.6093V11.3907C10.7791 11.6116 10.6 11.7907 10.3791 11.7907H0.4C0.179086 11.7907 0 11.6116 0 11.3907V8.6093Z" fill="#013A59"/>
<path d="M10.7791 13.8186C10.7791 13.5977 10.6 13.4186 10.3791 13.4186H0.4C0.179086 13.4186 0 13.5977 0 13.8186V16.6C0 16.8209 0.179085 17 0.399999 17H10.3791C10.6 17 10.7791 16.8209 10.7791 16.6V13.8186Z" fill="#013A59"/>
<path opacity="0.3" d="M12.5032 12.0028C12.4464 11.9272 12.4175 11.8329 12.4217 11.7367L12.5304 9.22491C12.5413 8.97382 12.767 8.79082 13.0043 8.84068L15.3841 9.34063C15.4753 9.3598 15.5567 9.41203 15.6137 9.48797L19.8728 15.1627C20.0054 15.3394 19.9736 15.5953 19.8019 15.7342L17.3137 17.7464C17.1419 17.8854 16.8952 17.8547 16.7626 17.6781L12.5032 12.0028Z" fill="#013A59"/>
</svg>
