<svg width="20" height="20" viewBox="0 0 20 20" fill="none" xmlns="http://www.w3.org/2000/svg">
<path d="M12.8523 10.9682L17.9728 5.56802C18.0091 5.52973 18.0091 5.47027 17.9728 5.43198L12.8523 0.0318289C12.7896 -0.0342523 12.6772 0.00942487 12.6772 0.0998494V2.92672C12.6772 3.14764 12.4981 3.32672 12.2772 3.32672H0.4C0.179086 3.32672 0 3.50581 0 3.72672V7.27505C0 7.49596 0.179086 7.67505 0.4 7.67505H12.2772C12.4981 7.67505 12.6772 7.85413 12.6772 8.07505V10.9002C12.6772 10.9906 12.7896 11.0343 12.8523 10.9682Z" fill="#013A59"/>
<path opacity="0.3" d="M11.2005 19.9682L6.02751 14.568C5.99083 14.5297 5.99083 14.4703 6.02751 14.432L11.2005 9.03183C11.2638 8.96575 11.3774 9.00942 11.3774 9.09985V11.9267C11.3774 12.1476 11.5565 12.3267 11.7774 12.3267H19.6C19.8209 12.3267 20 12.5058 20 12.7267V16.275C20 16.496 19.8209 16.675 19.6 16.675H11.7774C11.5565 16.675 11.3774 16.8541 11.3774 17.075V19.9002C11.3774 19.9906 11.2638 20.0343 11.2005 19.9682Z" fill="#013A59"/>
</svg>
