<svg width="20" height="20" viewBox="0 0 20 20" fill="none" xmlns="http://www.w3.org/2000/svg">
<g opacity="0.3">
<path d="M5 5.4C5 5.17909 4.82091 5 4.6 5H0.4C0.179086 5 0 5.17909 0 5.4V12.6612C0 12.8821 0.179086 13.0612 0.4 13.0612H4.6C4.82091 13.0612 5 12.8821 5 12.6612V5.4Z" fill="#013A59"/>
<path d="M5 14.9918C5 14.7709 4.82091 14.5918 4.6 14.5918H1.23333C1.01242 14.5918 0.833333 14.7709 0.833333 14.9918V19.6C0.833333 19.8209 1.01242 20 1.23333 20H4.6C4.82091 20 5 19.8209 5 19.6V14.9918Z" fill="#013A59"/>
</g>
<path d="M7 3.97521C7 3.46622 7.3816 3.03788 7.88651 2.97355C9.30643 2.79265 12.1319 2.39898 14.1107 1.90476C15.5292 1.55052 17.3987 0.923317 18.6472 0.485781C19.305 0.255251 20 0.741666 20 1.43868V14.5468C20 15.2478 19.2973 15.7352 18.6369 15.4999C17.3898 15.0556 15.5284 14.4268 14.1107 14.0952C12.1534 13.6375 9.36397 13.3542 7.93005 13.2297C7.40622 13.1843 7 12.7474 7 12.2216V3.97521Z" fill="#013A59"/>
</svg>
