<svg width="185" height="300" viewBox="0 0 185 300" fill="none" xmlns="http://www.w3.org/2000/svg">
<g clip-path="url(#clip0_2_6374)">
<path d="M2.10524 90.9397C-13.3818 165.931 67.4176 138.217 82.1465 214.637C96.8755 291.057 137.201 300.071 214.345 300.071V0.461609C143.192 -1.34958 17.5923 15.9489 2.10524 90.9397Z" fill="#E6F4FC"/>
<path d="M28.316 172.12C47.3741 172.735 63.8813 211.68 67.4177 231.837C74.4043 271.661 43.5911 272.172 23.4682 245.646C3.3452 219.12 4.49335 171.352 28.316 172.12Z" fill="#E6F4FC"/>
<path fill-rule="evenodd" clip-rule="evenodd" d="M178.836 56.3171L154.296 35.2881L129.756 56.3171H139.076V228.126H169.516V56.3171H178.836Z" fill="#B4DDF3"/>
<path fill-rule="evenodd" clip-rule="evenodd" d="M141.523 81.9414L116.983 60.9124L92.4434 81.9414H101.763V164.028L132.203 172.435V81.9414H141.523Z" fill="#67BBE8"/>
<path fill-rule="evenodd" clip-rule="evenodd" d="M122.549 109.779L98.0092 87.7263L73.4692 109.779H82.7892V205.745L113.229 164.025V109.779H122.549Z" fill="#028DD8"/>
<path d="M86.3335 131.519C86.3335 119.971 95.6953 110.609 107.244 110.609C118.792 110.609 128.154 119.971 128.154 131.519C128.154 137.681 125.489 143.22 121.249 147.047C117.408 151.873 115.876 157.644 115.403 159.655H100.088C99.6851 156.214 96.9782 151.005 94.5266 148.349C94.1081 148.025 93.6311 147.401 93.2387 147.047C88.9985 143.22 86.3335 137.681 86.3335 131.519Z" fill="#E6F4FC"/>
<path d="M104.096 159.655C104.096 150.106 93.5779 136.82 99.1137 133.36C102.763 131.08 107.372 139.621 104.096 141.11C100.057 142.946 100.464 128.516 107.279 128.516C112.676 128.516 115.86 142.782 110.462 141.11C106.628 139.923 113.23 128.24 116.275 133.36C119.319 138.481 111.569 148.307 111.569 159.655" stroke="#F18334" stroke-width="1.11391"/>
<rect x="98.0928" y="159.655" width="19.3996" height="12.455" fill="#FFB27A"/>
<path d="M98.0928 162.398H117.492M98.0928 165.721H117.492M98.0928 169.346H117.492" stroke="#F18334" stroke-width="1.11391"/>
<path d="M171.226 222.265C172.955 225.723 185.078 238.759 190.923 244.844C200.988 255.642 186.763 291.969 175.375 276.095C163.987 260.221 104.631 237.617 101.931 235.892C99.2307 234.166 97.0392 225.021 93.9334 222.265C90.8276 219.508 81.6826 206.891 82.8904 204.834C84.0983 202.776 88.2394 171.187 88.757 164.975C89.1711 160.006 90.5991 158.852 91.2614 158.897C97.5039 158.132 99.0645 167.39 99.0645 172.114L103.205 167.337C113.015 170.14 106.443 181.138 101.931 186.287L103.205 188.517C109.065 184.695 111.38 184.376 111.804 184.695C114.989 188.644 111.911 193.612 109.973 195.602C112.696 199.765 119.822 207.852 126.548 206.891C134.955 205.69 127.989 196.322 123.425 189.837C118.861 183.351 115.258 173.983 115.018 168.939C114.777 163.895 118.381 161.253 121.984 161.973C125.587 162.694 141.921 194.161 151.289 198.725C160.657 203.288 169.064 217.941 171.226 222.265Z" fill="#FFDBC1"/>
<g clip-path="url(#clip1_2_6374)">
<rect x="59.7241" y="33.624" width="6.39183" height="34.6985" rx="0.931222" fill="#028DD8"/>
<rect opacity="0.3" x="46.0273" y="47.3207" width="10.9574" height="6.39183" rx="0.931222" fill="#028DD8"/>
<rect opacity="0.3" x="69.7686" y="47.3207" width="10.9574" height="6.39183" rx="0.931222" fill="#028DD8"/>
</g>
<g clip-path="url(#clip2_2_6374)">
<rect x="38.3867" y="87.3511" width="3.51827" height="19.0992" rx="0.512575" fill="#028DD8"/>
<rect opacity="0.3" x="30.8477" y="94.8904" width="6.03132" height="3.51827" rx="0.512575" fill="#028DD8"/>
<rect opacity="0.3" x="43.9155" y="94.8904" width="6.03132" height="3.51827" rx="0.512575" fill="#028DD8"/>
</g>
</g>
<defs>
<clipPath id="clip0_2_6374">
<rect width="185" height="300" fill="white"/>
</clipPath>
<clipPath id="clip1_2_6374">
<rect width="40.3059" height="40.3059" fill="white" transform="translate(46.0273 33.624)"/>
</clipPath>
<clipPath id="clip2_2_6374">
<rect width="22.1857" height="22.1857" fill="white" transform="translate(30.8477 87.3516)"/>
</clipPath>
</defs>
</svg>
