<svg width="8" height="11" viewBox="0 0 8 11" fill="none" xmlns="http://www.w3.org/2000/svg">
<path d="M2.74276 6.69183V6.19991C2.74276 5.77447 2.83273 5.40443 3.01267 5.08978C3.19261 4.77513 3.52176 4.44054 4.00013 4.08601C4.46095 3.75363 4.76377 3.4833 4.9086 3.27501C5.05781 3.06672 5.13242 2.83406 5.13242 2.57702C5.13242 2.28896 5.02709 2.0696 4.81643 1.91892C4.60577 1.76824 4.31173 1.6929 3.9343 1.6929C3.27599 1.6929 2.52552 1.91006 1.68289 2.34436L0.965332 0.888556C1.94402 0.334597 2.98195 0.0576172 4.07913 0.0576172C4.9832 0.0576172 5.70076 0.276985 6.2318 0.71572C6.76722 1.15446 7.03493 1.73944 7.03493 2.47066C7.03493 2.95815 6.92521 3.37916 6.70578 3.73369C6.48634 4.08822 6.06941 4.48707 5.45499 4.93024C5.03368 5.24489 4.76596 5.4842 4.65186 5.64817C4.54214 5.81214 4.48728 6.02708 4.48728 6.29298V6.69183H2.74276Z" fill="#028DD8"/>
<path d="M2.80777 8.10576C2.61431 8.29606 2.51758 8.57708 2.51758 8.94883C2.51758 9.3073 2.61646 9.58611 2.81422 9.78526C3.01198 9.97998 3.29142 10.0773 3.65254 10.0773C4.00507 10.0773 4.28021 9.97777 4.47797 9.77862C4.67573 9.57504 4.77461 9.29845 4.77461 8.94883C4.77461 8.58593 4.67573 8.30712 4.47797 8.1124C4.28451 7.91767 4.00937 7.82031 3.65254 7.82031C3.28282 7.82031 3.00123 7.91546 2.80777 8.10576Z" fill="#028DD8" fill-opacity="0.5"/>
</svg>
