<svg width="210" height="267" viewBox="0 0 210 267" fill="none" xmlns="http://www.w3.org/2000/svg">
<path d="M1.9883 54.8924C-13.701 130.95 68.1536 102.842 83.0749 180.35C97.9961 257.858 138.849 267 217 267V-36.8733C144.918 -38.7103 17.6776 -21.1657 1.9883 54.8924Z" fill="#E6F4FC"/>
<path d="M28.5413 137.228C47.8483 137.852 64.5711 177.351 68.1536 197.795C75.2315 238.185 44.016 238.704 23.6302 211.8C3.24444 184.897 4.40759 136.449 28.5413 137.228Z" fill="#E6F4FC"/>
<path fill-rule="evenodd" clip-rule="evenodd" d="M210.115 39L185 18L159.885 39H169V213H200V39H210.115Z" fill="#B4DDF3"/>
<path fill-rule="evenodd" clip-rule="evenodd" d="M172.115 65L147 44L121.885 65H131V148.437L162 157V65H172.115Z" fill="#67BBE8"/>
<path fill-rule="evenodd" clip-rule="evenodd" d="M153.115 93.5L128 71L102.885 93.5H112V191L143 148.772V93.5H153.115Z" fill="#028DD8"/>
<path d="M116 115.317C116 103.544 125.626 94 137.5 94C149.374 94 159 103.544 159 115.317C159 121.598 156.26 127.245 151.9 131.146C147.951 136.066 146.376 141.95 145.89 144H130.142C129.728 140.492 126.945 135.181 124.424 132.474C123.994 132.143 123.503 131.507 123.1 131.146C118.74 127.245 116 121.598 116 115.317Z" fill="#E6F4FC"/>
<path d="M133.768 144C133.768 134.187 122.969 120.533 128.653 116.978C132.399 114.634 137.131 123.412 133.768 124.942C129.622 126.829 130.039 112 137.036 112C142.578 112 145.846 126.66 140.304 124.942C136.368 123.722 143.146 111.716 146.272 116.978C149.398 122.24 141.441 132.338 141.441 144" stroke="#F18334" stroke-width="1.31303"/>
<rect x="128" y="144" width="20" height="13" fill="#FFB27A"/>
<path d="M128 147H148M128 150.348H148M128 154H148" stroke="#F18334" stroke-width="1.31303"/>
<path d="M202.374 207.355C204.141 210.866 216.528 224.095 222.501 230.271C232.785 241.229 218.251 278.097 206.614 261.987C194.978 245.876 134.327 222.937 131.568 221.185C128.808 219.434 126.569 210.153 123.395 207.355C120.222 204.558 110.877 191.754 112.112 189.665C113.346 187.577 117.577 155.518 118.106 149.214C118.529 144.171 119.988 143 120.665 143.045C127.044 142.269 128.639 151.665 128.639 156.459L132.869 151.611C142.893 154.455 136.178 165.618 131.568 170.843L132.869 173.106C138.858 169.227 141.222 168.904 141.656 169.227C144.911 173.235 141.765 178.277 139.785 180.296C142.567 184.522 149.849 192.729 156.721 191.754C165.312 190.535 158.194 181.028 153.53 174.446C148.867 167.864 145.185 158.356 144.94 153.237C144.694 148.118 148.376 145.436 152.058 146.168C155.739 146.899 172.43 178.834 182.002 183.465C191.575 188.097 200.165 202.968 202.374 207.355Z" fill="#FFDBC1"/>
<rect x="75" y="24" width="8" height="41" rx="1.09769" fill="#028DD8"/>
<rect opacity="0.3" x="59" y="40" width="13" height="8" rx="1.09769" fill="#028DD8"/>
<rect opacity="0.3" x="87" y="40" width="13" height="8" rx="1.09769" fill="#028DD8"/>
<g clip-path="url(#clip0_2_577)">
<rect x="53" y="79" width="4" height="23" rx="0.604203" fill="#028DD8"/>
<rect opacity="0.3" x="44" y="88" width="7" height="4" rx="0.604203" fill="#028DD8"/>
<rect opacity="0.3" x="60" y="88" width="7" height="4" rx="0.604203" fill="#028DD8"/>
</g>
<defs>
<clipPath id="clip0_2_577">
<rect width="22" height="23" fill="white" transform="translate(44 79)"/>
</clipPath>
</defs>
</svg>
