<svg width="240" height="171" viewBox="0 0 240 171" fill="none" xmlns="http://www.w3.org/2000/svg">
<path d="M11.5257 -14.0173C41.2691 -50.3596 95.1095 -14.0173 161.882 -14.0173C322.841 -14.0173 250.704 -14.3059 261.94 149.194C266.639 217.581 -14.1924 229.156 31.9265 127.135C57.8198 69.856 -28.5386 34.9357 11.5257 -14.0173Z" fill="#E6F4FC"/>
<ellipse cx="128.964" cy="145.23" rx="80.2445" ry="9.01831" fill="#B4DDF4"/>
<path d="M207.577 18.256C200.166 18.509 190.998 12.7655 182.09 5.59726L219.355 86.2881C215.374 65.1284 223.413 59.4859 226.427 57.1832C233.674 51.6475 259.002 40.0804 274.937 33.5805C286.033 25.104 273.772 4.49666 264.663 5.09708C237.212 14.6483 218.482 17.8837 207.577 18.256Z" fill="#B4DDF4"/>
<ellipse cx="191.343" cy="49.5494" rx="22.4991" ry="50.0495" transform="rotate(-25.3768 191.343 49.5494)" fill="#67BBE8"/>
<mask id="mask0_1042_140" style="mask-type:alpha" maskUnits="userSpaceOnUse" x="161" y="3" width="60" height="93">
<ellipse cx="191.226" cy="49.6051" rx="22.3693" ry="50.0495" transform="rotate(-25.3768 191.226 49.6051)" fill="#79C3FE"/>
</mask>
<g mask="url(#mask0_1042_140)">
<path d="M211.611 34.1809C207.055 37.6613 195.981 38.6359 187.533 35.5026C191.767 44.792 198.947 62.6745 198.832 62.982C202.861 52.1976 210.999 48.9966 216.139 46.5471L214.569 41.9724L211.611 34.1809Z" fill="#028DD8"/>
</g>
<ellipse cx="190.947" cy="49.8178" rx="7.90142" ry="15.4282" transform="rotate(-25.3768 190.947 49.8178)" fill="#B4DDF4"/>
<path d="M113.392 145.884V143.575H115.8V145.884H113.392Z" fill="#FFDBC1"/>
<path d="M141.891 145.34V143.031H144.412V145.34H141.891Z" fill="#FFDBC1"/>
<path d="M115.978 145.23H113.336C109.694 146.723 107.547 148.036 106.929 148.505H116.058C116.374 147.569 116.137 145.932 115.978 145.23Z" fill="#028DD8"/>
<path d="M141.77 145.23H144.412C148.055 146.723 150.201 148.036 150.819 148.505H141.691C141.374 147.569 141.612 145.932 141.77 145.23Z" fill="#028DD8"/>
<path d="M138.771 84.5239H119.526C115.635 105.471 114.18 118.099 112.357 143.584H116.936C122.659 111.009 126.667 108.174 128.677 98.9367C131.513 108.462 133.343 108.593 141.356 143.584H145.298C145.298 139.933 142.973 108.462 138.771 84.5239Z" fill="#028DD8"/>
<path d="M140.039 19.9234C140.252 20.7642 140.432 22.6687 140.52 23.7685L143.043 25.4999C146.998 21.4627 152.774 14.1626 147.264 16.0685C145.706 16.6074 144.899 16.9862 141.675 19.5716C141.59 19.4881 140.654 17.1213 140.52 16.9862C140.145 16.6084 139.337 17.1462 140.039 19.9234Z" fill="#FFDBC1"/>
<path d="M118.018 19.8544C117.872 20.7093 117.841 22.6221 117.84 23.7253L115.14 24.8325C110.881 21.1177 104.684 13.9285 110.327 15.3967C111.922 15.8118 114.123 18.3412 116.36 19.6319C116.437 19.542 116.584 15.8267 116.749 15.7324C118.347 14.8218 118.2 18.7858 118.018 19.8544Z" fill="#FFDBC1"/>
<path d="M134.636 42.1021C134.337 44.7832 132.176 46.5761 131.133 47.1374L125.883 42.209C124.49 41.248 122.305 38.7609 124.712 36.5004C127.722 33.6748 129.799 38.41 131.358 38.806C132.917 39.202 135.01 38.7506 134.636 42.1021Z" fill="#67BBE8"/>
<path d="M132.545 53.4819H125.765C120.879 48.3305 118.151 32.4828 118.151 23.1738H113.102C113.102 47.3142 117.881 52.1172 119.345 59.7465L116.97 90.5545H141.124C139.846 82.0288 139.238 59.7465 139.238 59.7465C139.238 59.7465 144.547 39.4343 145.355 23.1738L140.002 23.6788C138.487 39.1313 135.05 49.6461 132.545 53.4819Z" fill="#67BBE8"/>
<path d="M131.685 46.5182L130.68 52.6458L126.7 51.9929L126.957 50.4242C126.327 50.7235 124.844 51.0441 123.961 49.9327C123.078 48.8213 124.841 42.4938 125.352 41.4521C125.863 40.4105 131.316 41.8206 131.479 42.4571C131.642 43.0937 131.157 44.418 131.157 44.418C132.846 43.5272 133.197 46.2627 131.685 46.5182Z" fill="#FFDBC1"/>
<path d="M125.387 53.9015L126.034 51.933L130.624 51.6377L132.842 53.9015H125.387Z" fill="#67BBE8"/>
<path d="M160.555 48.7607C160.93 46.2864 163.438 43.0723 164.644 41.7745L167.944 42.8401C167.583 44.2799 167.061 46.9989 167.865 46.3564C168.869 45.5532 169.747 47.0305 168.65 48.3809C167.773 49.4613 166.449 53.263 165.897 55.0288C164.654 56.5798 162.029 55.7262 160.871 55.1055L161.381 52.0708C160.95 51.9984 160.181 51.235 160.555 48.7607Z" fill="#FFDBC1"/>
<path d="M188.082 121.973L186.543 121.565L185.765 124.506L187.304 124.913L188.082 121.973Z" fill="#FFDBC1"/>
<path d="M191.665 122.286L188.662 121.491C187.943 121.712 187.445 122.702 187.102 125.391C187.047 125.817 188.195 129.075 187.631 131.209L189.194 131.623L190.489 126.728C190.52 125.944 190.514 124.34 190.235 124.196C189.956 124.052 190.695 124.288 191.099 124.424L191.665 122.286Z" fill="#028DD8"/>
<path d="M158.022 145.876L158.496 142.001L155.398 141.622L154.923 145.496L158.022 145.876Z" fill="#FFDBC1"/>
<path d="M159.1 145.386L159.102 148.492L156.889 148.493C156.917 148.068 156.956 147.293 156.889 147.6C156.821 147.906 155.272 148.324 154.507 148.495L149.443 148.498L149.442 146.881C151.65 146.88 154.504 144.935 154.93 144.878C157.617 144.52 158.702 144.748 159.1 145.386Z" fill="#028DD8"/>
<path d="M187.307 119.837C172.823 116.282 161.98 108.368 165.497 89.5823L146.446 83.9106C140.92 102.003 147.863 127.763 153.998 142.886L160.276 142.886C156.895 130.214 152.451 115.383 153.998 101.271C157.176 111.203 159.798 113.98 165.497 118.325C169.147 121.108 183.092 124.989 185.859 125.894L187.307 119.837Z" fill="#B4DDF4"/>
<path d="M149.116 24.6192C148.908 25.5079 148.712 28.0478 148.64 29.2067L146.017 31.0754C141.781 26.9002 144.784 20.7227 146.066 20.6924C147.349 20.6621 147 29.0295 147.505 26.3138C148.01 23.5982 149.376 23.5083 149.116 24.6192Z" fill="#FFDBC1"/>
<path d="M191.764 41.2141C191.279 41.9876 189.613 43.9144 188.84 44.7811L189.359 47.9596C195.307 48.0299 197.581 41.5487 196.7 40.6165C195.819 39.6842 190.121 45.8217 191.694 43.5514C193.268 41.281 192.37 40.2473 191.764 41.2141Z" fill="#FFDBC1"/>
<path d="M153.088 61.3415C151.132 66.7273 146.185 78.1379 144.273 90.8954L167.795 94.5854C167.795 94.5854 169.741 67.8203 171.068 65.1655C172.395 62.5106 185.462 53.7646 191.665 49.1423L188.346 43.4533C185.312 46.5822 172.083 52.4909 165.848 55.0541C164.472 55.6201 164.043 56.5563 160.853 54.2057C157.663 51.8551 152.108 35.8766 149.73 28.1812L144.273 31.1194L153.088 61.3415Z" fill="#028DD8"/>
<path d="M163.131 40.803C163.129 42.306 166.946 43.2334 167.121 43.2626C166.61 43.5777 165.239 47.6474 164.617 49.6429L163.12 49.3915C163.28 47.378 161.783 46.6972 161.144 47.0911C160.506 47.4849 158.788 51.9569 158.962 51.9862L164.88 52.98C165.43 50.9128 166.818 46.6837 167.97 46.3045C169.409 45.8304 169.432 47.9338 168.234 47.9949C167.225 48.0463 166.946 51.1198 166.651 52.0247L167.626 52.1884C167.558 51.1031 169.533 49.1441 170.918 46.4416C172.302 43.739 172.264 42.0503 169.166 41.1006C166.068 40.1508 165.396 39.4652 164.352 38.8604C163.308 38.2556 163.133 39.3 163.131 40.803Z" fill="#028DD8"/>
<path d="M54.2992 93.0626C58.6717 95.1204 58.6926 96.37 58.1565 96.7376C56.2576 97.0806 52.1985 98.1601 51.154 99.7342C50.1096 101.308 48.6345 101.001 48.0275 100.65L52.0576 95.7745L55.3325 95.4509L53.6377 93.8629L54.2992 93.0626Z" fill="#67BBE8"/>
<path d="M51.1567 99.6246C53.9996 97.3965 56.3758 98.4031 57.2085 99.1849L59.0269 96.9851C58.2378 96.288 56.9464 96.107 56.3994 96.1036C52.3772 96.2349 51.2284 98.5057 51.1567 99.6246Z" fill="#FFDBC1"/>
<path d="M107.266 148.699L106.228 148.704C104.451 143.994 105.719 143.197 106.574 143.388C108.055 144.625 111.486 147.048 113.364 146.84C115.242 146.632 115.951 147.961 116.072 148.652L109.746 148.686L107.398 146.38L107.266 148.699Z" fill="#67BBE8"/>
<path d="M113.532 146.829C110.435 146.724 108.932 142.712 108.755 141.404L105.846 141.372C105.853 143.629 107.373 146.117 107.945 146.395C110.915 148.379 112.908 147.511 113.532 146.829Z" fill="#FFDBC1"/>
<path d="M103.863 142.364L111.603 142.364C111.603 131.147 111.962 123.28 110.919 115.053C110.245 109.739 102.838 89.9615 97.5225 89.7481L91.3804 92.4395C93.8722 103.813 99.2906 106.232 101.873 117.405C103.863 126.015 103.863 131.917 103.863 142.364Z" fill="#67BBE8"/>
<path d="M56.2943 100.431C89.3274 130.634 94.6984 102.898 96.2154 90.8586L83.4532 92.7718C83.2076 98.8884 82.666 104.008 79.972 105.454C75.2857 106.043 66.4754 101.176 59.8658 94.4658L56.2943 100.431Z" fill="#67BBE8"/>
<path d="M86.8018 64.1299L92.2322 62.9224L98.9393 90.9767L91.0048 92.1662L86.8018 64.1299Z" fill="white"/>
<path d="M88.2917 64.7511C89.7679 64.991 92.5956 63.8475 91.9211 61.275C93.2265 61.2394 95.0685 62.3614 95.5825 58.7104C96.0964 55.0595 95.1247 51.6537 94.5746 50.4071L87.2061 52.1362L86.5555 57.2776L88.2917 64.7511Z" fill="#FFDBC1"/>
<path d="M54.8005 61.1702C55.126 61.7391 56.2662 63.1696 56.7956 63.8138C61.0653 66.1417 72.0476 69.5103 81.8187 64.3618L82.7556 71.2296C75.4274 73.3498 62.2548 70.8844 56.3317 66.0794C52.0621 65.9585 50.6169 61.2427 51.276 60.5992C51.9352 59.9556 55.8466 64.5235 54.7831 62.8492C53.7196 61.1749 54.3936 60.459 54.8005 61.1702Z" fill="#FFDBC1"/>
<path d="M114.597 45.3177C114.617 45.9729 114.392 47.7884 114.278 48.6142C111.854 52.8303 107.288 63.1474 93.2296 62.158L96.9516 68.1035C109.57 64.226 113.318 57.4955 115.857 50.3034C119.434 47.9692 118.202 43.1933 117.304 42.9891C116.405 42.7849 115.458 48.7235 115.489 46.7402C115.521 44.7569 114.572 44.4988 114.597 45.3177Z" fill="#FFDBC1"/>
<path d="M80.9039 65.0574C81.8874 63.5835 84.617 63.4701 86.3477 62.096L88.0412 63.3242L92.9134 97.9625L81.2644 99.3194C81.3369 94.0388 81.4981 83.0891 81.5634 81.5352C81.645 79.5928 79.9204 66.5314 80.9039 65.0574Z" fill="#67BBE8"/>
<path d="M96.968 96.2565L91.8093 63.1825L92.6136 62.3475L95.1946 61.4517C95.0663 62.1632 97.2715 65.9982 98.0627 68.9875C99.3518 73.8582 98.4126 79.0284 99.9225 85.6811C101.13 91.0033 102.406 90.7946 103.095 91.6864L96.968 96.2565Z" fill="#67BBE8"/>
<path d="M88.9549 53.6392C91.9408 53.2406 93.8235 51.5832 94.3916 50.8044C94.5639 51.9537 94.9621 52.7175 95.2631 52.9784C95.6902 57.0413 94.0005 60.2886 93.3092 60.5147C92.7562 60.6955 90.8786 60.0222 90.8786 60.0222L91.7305 63.1826C97.8498 63.9402 98.1932 57.382 105.16 54.8714C105.16 54.8714 100.143 54.67 95.4032 49.4899C94.9465 48.9908 93.0147 46.0532 88.0217 47.4138C84.0273 48.5022 84.9986 52.6018 73.0654 54.5416C74.6924 62.4986 84.4739 58.1711 88.1934 64.7778L88.5793 55.1644C88.2551 55.1518 87.6508 54.9364 87.8268 54.1755C88.0028 53.4147 88.6522 53.501 88.9549 53.6392Z" fill="#F18334"/>
</svg>
