<svg width="20" height="20" viewBox="0 0 20 20" fill="none" xmlns="http://www.w3.org/2000/svg">
<path d="M20 9C20 13.9706 15.9706 18 11 18C6.02944 18 2 13.9706 2 9C2 4.02944 6.02944 0 11 0C15.9706 0 20 4.02944 20 9ZM4.80258 9C4.80258 12.4227 7.57726 15.1974 11 15.1974C14.4227 15.1974 17.1974 12.4227 17.1974 9C17.1974 5.57726 14.4227 2.80258 11 2.80258C7.57726 2.80258 4.80258 5.57726 4.80258 9Z" fill="#013A59"/>
<g opacity="0.3">
<path d="M8.29866 12.7211C8.21869 12.6362 8.22754 12.4974 8.31236 12.4173L15.0504 6.0547C15.1352 5.9746 15.2649 5.98253 15.3336 6.07806C15.9004 6.86672 16.1178 7.91661 15.9388 9.02797C15.7467 10.2204 15.114 11.3859 14.1797 12.2681C13.2455 13.1503 12.0863 13.677 10.9571 13.7321C9.90477 13.7836 8.95886 13.4216 8.29866 12.7211Z" fill="#013A59"/>
<path d="M0.0626393 17.9245C-0.018682 18.0084 -0.0211447 18.1468 0.0571388 18.2337L1.58823 19.9332C1.66651 20.0201 1.7959 20.0225 1.87722 19.9387L4.89024 16.8311C4.97156 16.7472 4.97403 16.6087 4.89574 16.5219L3.36466 14.8223C3.28637 14.7355 3.15699 14.733 3.07567 14.8169L0.0626393 17.9245Z" fill="#013A59"/>
</g>
</svg>
