<svg width="20" height="20" viewBox="0 0 20 20" fill="#013A59" xmlns="http://www.w3.org/2000/svg">
<path d="M9.72551 5.25922L2.12541 12.434C2.04537 12.5095 2 12.6147 2 12.7248V19.6C2 19.8209 2.17909 20 2.4 20H7.91579C8.1367 20 8.31579 19.8209 8.31579 19.6V16.2041C8.31579 15.9831 8.49488 15.8041 8.71579 15.8041H11.2842C11.5051 15.8041 11.6842 15.9831 11.6842 16.2041V19.6C11.6842 19.8209 11.8633 20 12.0842 20H17.6C17.8209 20 18 19.8209 18 19.6V12.7248C18 12.6147 17.9546 12.5095 17.8746 12.434L10.2747 5.25922C10.1205 5.11371 9.87965 5.11371 9.72551 5.25922Z" fill="#028DD8"/>
<path opacity="0.3" d="M10.1444 0.0580084C10.0634 -0.0193362 9.93665 -0.0193361 9.85555 0.0580085L0.0659997 9.39535C-0.0185242 9.47597 -0.0223738 9.61057 0.0574016 9.69599L1.21297 10.9333C1.29275 11.0187 1.42594 11.0226 1.51046 10.942L9.85555 2.98238C9.93665 2.90504 10.0634 2.90504 10.1444 2.98238L18.4895 10.942C18.5741 11.0226 18.7073 11.0187 18.787 10.9333L19.9426 9.69599C20.0224 9.61057 20.0185 9.47597 19.934 9.39535L16.1217 5.75911C16.0425 5.68363 15.9977 5.57903 15.9977 5.46966V2.12671C15.9977 2.00925 15.9035 1.91404 15.7873 1.91404H14.1037C13.9875 1.91404 13.8933 2.00925 13.8933 2.12671V3.63367L10.1444 0.0580084Z" fill="#028DD8"/>
</svg>
