<svg width="20" height="20" viewBox="0 0 20 20" fill="none" xmlns="http://www.w3.org/2000/svg">
<path d="M0 16.6V7.64721C0 7.34986 0.312926 7.15646 0.578886 7.28944L9.82111 11.9106C9.93373 11.9669 10.0663 11.9669 10.1789 11.9106L19.4211 7.28944C19.6871 7.15646 20 7.34986 20 7.64721V16.6C20 16.8209 19.8209 17 19.6 17H0.4C0.179086 17 0 16.8209 0 16.6Z" fill="#013A59"/>
<path opacity="0.3" d="M19.6 3H0.4C0.179086 3 0 3.17909 0 3.4V5.70131C0 5.85222 0.0849252 5.99028 0.219613 6.05833L9.81961 10.9089C9.93304 10.9662 10.067 10.9662 10.1804 10.9089L19.7804 6.05833C19.9151 5.99028 20 5.85222 20 5.70132V3.4C20 3.17909 19.8209 3 19.6 3Z" fill="#013A59"/>
</svg>
