<svg width="20" height="20" viewBox="0 0 20 20" fill="none" xmlns="http://www.w3.org/2000/svg">
<path d="M9.16667 10.7718C9.16667 10.6195 9.08021 10.4804 8.94366 10.4131L0.576997 6.28471C0.311165 6.15354 0 6.34698 0 6.64342V15.3689C0 15.523 0.0885281 15.6634 0.227582 15.7298L8.59425 19.7266C8.85973 19.8534 9.16667 19.6598 9.16667 19.3656V10.7718Z" fill="#013A59"/>
<path d="M10.8333 10.7716C10.8333 10.6193 10.9198 10.4803 11.0563 10.4129L19.423 6.28469C19.6888 6.15353 20 6.34697 20 6.6434V15.3687C20 15.5229 19.9115 15.6633 19.7724 15.7297L11.4058 19.7264C11.1403 19.8533 10.8333 19.6597 10.8333 19.3655V10.7716Z" fill="#013A59"/>
<path opacity="0.3" d="M0.724045 5.40904C0.427057 5.26332 0.425248 4.84061 0.720977 4.69235L9.90032 0.0905984C10.014 0.0336304 10.1479 0.0340669 10.2612 0.0917739L19.2929 4.69341C19.5856 4.8425 19.5838 5.26121 19.2899 5.40777L10.2581 9.9117C10.1465 9.96735 10.0154 9.96777 9.90341 9.91285L0.724045 5.40904Z" fill="#013A59"/>
</svg>
