<svg width="351" height="211" viewBox="0 0 351 211" fill="none" xmlns="http://www.w3.org/2000/svg">
<g clip-path="url(#clip0_2_1103)">
<g opacity="0.67">
<path d="M51.4646 114.171C19.9685 155.746 51.4646 207.4 51.4646 211.809H302.803C302.803 211.809 305.323 171.494 293.985 164.565C282.646 157.636 288.945 128.659 293.985 104.092C299.024 79.5253 278.237 44.8796 244.221 28.5017C210.205 12.1237 186.898 33.541 173.039 59.9977C159.181 86.4545 133.984 109.132 120.126 94.6435C106.268 80.1553 82.9607 72.5962 51.4646 114.171Z" fill="#028DD8" fill-opacity="0.25"/>
<path d="M98.7085 68.1867C89.1337 47.0213 111.937 30.3913 124.535 24.7221C150.362 10.2338 161.701 36.6906 155.402 54.9583C149.102 73.2261 110.677 94.6435 98.7085 68.1867Z" fill="#028DD8" fill-opacity="0.25"/>
<path d="M83.8248 73.5725C70.341 75.0071 67.6214 63.7204 68.4832 60.8731C69.3451 58.0257 73.4899 56.2339 78.8402 57.0878C85.7346 58.1883 100.679 71.7792 83.8248 73.5725Z" fill="#028DD8" fill-opacity="0.25"/>
<path d="M3.50236 174.335C-1.79734 163.736 0.630683 155.563 5.15851 153.012C12.9324 148.631 17.5797 154.213 22.5482 168.124C28.7587 185.514 10.127 187.584 3.50236 174.335Z" fill="#028DD8" fill-opacity="0.25"/>
<path d="M310.401 118.927C319.686 100.091 334.388 101.189 340.578 104.092C353.511 108.823 352.516 133.187 340.578 145.125C328.64 157.063 320.349 156.069 314.712 155.737C309.074 155.405 298.794 142.472 310.401 118.927Z" fill="#028DD8" fill-opacity="0.25"/>
<path d="M289.508 54.9242C285.928 46.9654 289.785 41.8805 292.161 40.3329C301.115 37.68 303.768 47.9602 303.768 54.9242C303.768 61.8883 293.985 64.8729 289.508 54.9242Z" fill="#028DD8" fill-opacity="0.25"/>
</g>
<path d="M162.194 65.4104C164.386 66.544 163.611 74.7627 162.949 78.7304C159.517 80.3049 152.52 82.2918 151.991 77.6439C151.33 71.8341 152.653 66.7329 155.062 64.6074C157.47 62.4819 159.454 63.9933 162.194 65.4104Z" fill="#E57443"/>
<path d="M102.029 211.418C102.029 207.545 106.13 200.961 122.534 205.609C132.856 208.533 139.54 204.443 145.334 200.88C142.389 190.343 108.523 176.56 122.534 171.776C133.743 167.948 144.368 188.407 148.279 199.115C149.439 198.459 150.58 197.882 151.727 197.452C151.451 191.855 152.061 180.593 156.709 180.319C162.518 179.978 154.556 194.302 154.773 196.709C155.752 196.609 156.751 196.653 157.784 196.879C159.528 193.826 163.429 188.213 165.074 190.177C166.72 192.141 160.9 195.463 157.784 196.879C159.277 197.205 160.841 197.911 162.518 199.115C175.846 208.684 184.732 208.001 188.833 205.609C192.113 203.695 201.363 208.684 205.578 211.418H102.029Z" fill="#028DD8"/>
<path d="M66.1459 190.572C68.8799 186.471 75.487 202.761 78.4488 211.418C75.2592 210.621 68.3332 208.343 66.1459 205.609C63.9587 202.875 73.4365 208.343 78.4488 211.418C73.2087 206.178 63.412 194.673 66.1459 190.572Z" fill="#028DD8"/>
<path d="M230.526 211.418C237.006 199.436 250.961 175.958 254.948 177.896C258.933 179.833 240.359 201.018 230.55 211.393C237.705 203.828 253.109 189.618 257.69 193.098C260.618 195.322 253.199 200.279 244.598 204.784C249.378 206.291 259.135 209.727 259.933 211.418C260.73 213.11 241.013 211.973 231.055 211.193C230.876 211.269 230.7 211.345 230.526 211.418Z" fill="#028DD8"/>
<path d="M165.195 211.886C165.897 210.159 168.628 207.222 173.94 209.295C179.251 211.368 181.659 210.159 182.198 209.295C177.826 207.568 169.47 203.595 171.025 201.522C172.579 199.449 179.122 205.84 182.198 209.295C178.366 202.44 171.349 188.535 173.94 187.758C177.178 186.786 183.279 202.972 182.198 209.295C186.052 206.481 194.043 203.059 195.177 211.886H165.195Z" fill="white"/>
<path d="M64.6575 119.689C61.7659 124.259 67.7598 127.937 71.3744 128.13L74.7215 121.985V115.501C74.6917 115.055 74.4984 114.502 73.9629 115.858C73.2935 117.554 68.2721 113.977 64.6575 119.689Z" fill="#028DD8"/>
<path d="M133.472 148.011L91.89 162.738L77.5963 118.991L93.6347 113.332C89.953 113.549 84.8632 102.234 95.5717 99.0659C103.51 96.7174 106.4 105.852 105.101 110.544L120.128 105.993L125.499 120.851C120.128 117.987 110.627 123.417 114.579 132.308C117.877 139.727 126.253 137.183 128.707 133.501L133.472 148.011Z" fill="#028DD8"/>
<path d="M208.328 94.3307L251.877 101.36L243.428 146.602L226.642 143.871C229.976 145.447 229.013 157.817 218.097 155.459C210.005 153.71 211.852 144.309 215.244 140.816L199.875 137.599L202.292 121.986C205.63 127.076 216.571 126.87 217.37 117.173C218.036 109.082 209.466 107.295 205.546 109.348L208.328 94.3307Z" fill="white"/>
<path d="M243.586 170.8L243.479 214.913L197.472 213.67L197.534 196.662C196.5 200.203 184.133 201.193 184.749 190.043C185.205 181.777 194.78 182.125 198.762 184.926L199.527 169.243L215.326 169.18C210.823 173.275 212.743 184.048 222.445 183.315C230.541 182.703 230.96 173.959 228.318 170.41L243.586 170.8Z" fill="#ACE2FF"/>
<path fill-rule="evenodd" clip-rule="evenodd" d="M134.901 155.978H176.618V160.656H172.065L181.391 206.253L179.672 206.604L170.274 160.656H143.276L133.472 208.592L131.753 208.241L141.485 160.656H134.901V155.978Z" fill="#ACE2FF"/>
<path d="M294.841 207.315C295.497 206.55 293.93 205.235 293.065 204.674L290.287 204.446L290.97 207.68L286.37 211.141C288.237 211.171 292.045 211.214 292.336 211.141C292.701 211.05 294.022 208.272 294.841 207.315Z" fill="#ACE2FF"/>
<path d="M271.236 211.665V208.746H268.848L261.154 211.665H271.236Z" fill="#ACE2FF"/>
<path d="M278.368 104.988C279.053 106.905 277.523 110.061 276.02 111.146C274.251 110.442 270.187 108.829 268.087 108.007C265.987 107.185 265.842 103.137 266.032 101.215C267.022 101.71 269.537 102.551 271.682 101.957C274.365 101.215 277.512 102.591 278.368 104.988Z" fill="#028DD8"/>
<path d="M280.782 163.418C280.888 161.82 280.293 155.296 279.983 152.234L263.607 155.829L267.202 209.351H271.462C273.486 209.245 275.589 190.667 276.388 181.392L290.368 205.756L293.297 204.558C292.942 202.162 292.019 195.744 291.167 189.247C290.102 181.125 280.649 165.415 280.782 163.418Z" fill="#028DD8"/>
<path fill-rule="evenodd" clip-rule="evenodd" d="M143.556 104.449C144.42 104.207 146.215 103.724 146.477 103.724L163.364 100.531V99.1519V88.9998C164.541 90.5998 166.994 94.0096 167.392 94.8483C167.789 95.6869 173.369 96.9633 176.109 97.4967L178.04 96.1725C175.797 94.977 170.956 92.4206 169.544 91.7585C168.131 91.0964 164.835 82.5075 163.364 78.2958C161.709 78.5349 157.328 78.649 153.046 77.1923C150.128 76.1995 138.921 91.6481 138.48 93.6344C138.127 95.2234 141.717 101.506 143.556 104.449ZM150.548 92.2986C151.703 95.3454 148.316 101.185 146.477 103.724L144.329 93.0826L147.805 88.9998C148.238 88.8299 149.392 89.2519 150.548 92.2986Z" fill="#028DD8"/>
<path d="M91.9485 161.851L72.4656 165.071C63.7963 145.838 65.9482 133.19 70.1435 131.31C70.1661 131.829 71.4349 132.932 76.3298 133.19C82.4484 133.512 84.0586 142.207 84.2196 143.173C84.3484 143.946 96.0811 151.546 101.931 155.249L99.8381 160.241L89.3721 155.249L91.9485 161.851Z" fill="#ACE2FF"/>
<path d="M140.359 155.867C139.633 155.42 140.661 152.608 141.266 151.258L143.71 151.957L149.367 156.286C146.667 156.333 141.085 156.314 140.359 155.867Z" fill="white"/>
<path d="M164.8 155.937V151.957L166.615 151.468L174.855 155.937H164.8Z" fill="white"/>
<path d="M164.478 152.118L157.62 130.982C151.928 131.604 146.179 145.332 144.017 152.118L141.206 151.444L144.579 125.586L164.478 128.059L167.289 151.444L164.478 152.118Z" fill="#ACE2FF"/>
<path d="M141.931 148.767L131.892 105.811L176.951 96.4418L180.802 113.007C180.993 109.324 192.802 105.517 194.767 116.51C196.223 124.659 186.825 126.522 182.305 124.712L185.167 140.15L169.807 143.845C173.247 138.824 168.9 128.781 159.627 131.726C151.889 134.183 153.492 142.789 156.879 145.635L141.931 148.767Z" fill="#E57443"/>
<path d="M70.2999 126.968C71.9425 128.428 70.9843 130.871 70.2999 131.91L75.5464 133.963L74.8621 128.032C75.3436 127.855 76.4741 127.393 77.1432 126.968C77.9797 126.435 75.5464 119.364 73.7215 119.972C71.8965 120.58 71.0601 124.762 70.2999 124.61C69.5397 124.458 68.2467 125.143 70.2999 126.968Z" fill="#F0CCC4"/>
<path d="M99.2884 160.059L101.065 155.973C103.019 156.535 106.43 158.016 104.44 159.437C102.45 160.858 100.177 160.444 99.2884 160.059Z" fill="#F0CCC4"/>
<path d="M156.177 74.5865C155.796 73.5972 156.177 71.6504 156.177 70.7788C158.936 70.7788 161.153 68.7391 161.917 67.7192C162.471 69.5447 162.753 73.5003 161.917 75.0702C161.442 75.9605 160.53 76.3276 159.885 76.3276V78.4523C158.397 79.1751 157.42 78.9625 156.177 78.0686C156.575 77.327 156.675 75.881 156.177 74.5865Z" fill="#F0CCC4"/>
<path d="M177.037 100.706C175.673 101.546 175.594 98.434 175.726 96.7733C176.163 96.4674 177.273 95.8818 178.217 95.9867C179.396 96.1178 178.741 99.6576 177.037 100.706Z" fill="#F0CCC4"/>
<path d="M274.9 115.304C274.837 116.448 275.933 117.899 276.489 118.481L270.612 119.672L270.135 115.304C267.213 114.796 267.541 109.48 268.07 106.886C269.447 106.912 272.439 106.949 273.392 106.886C274.345 106.822 274.795 108.554 274.9 109.427C275.033 109.321 275.29 108.665 276.243 109.427C277.434 110.38 274.98 113.875 274.9 115.304Z" fill="#F0CCC4"/>
<path d="M240.983 130.094C242.299 129.371 244.821 131.328 245.918 132.398V134.618C242.217 134.289 239.338 130.999 240.983 130.094Z" fill="#F0CCC4"/>
<path d="M85.7833 183.968C83.1949 182.242 76.2211 170.451 73.0577 164.771L89.0188 161.967L115.118 205.106L112.818 206.256L122.53 205.106L113.652 211.352L110.518 207.406L109.51 207.91L94.4112 193.243L91.1758 208.988L89.7819 208.783L94.4112 212.256H83.8422L84.7206 208.039L83.8422 207.91L85.7833 183.968Z" fill="white"/>
<path d="M280.43 152.815C279.012 156.057 268.023 156.36 262.705 156.107V136.108C256.879 136.905 248.766 135.776 245.438 135.112L246.138 131.637C246.653 131.637 255.525 130.457 259.897 129.867C257.29 129.963 250.362 127.439 247.224 126.165L247.998 121.972C256.913 123.633 265.738 121.281 269.036 119.897L276.379 117.871C282.861 122.935 281.781 143.277 280.43 152.815Z" fill="white"/>
</g>
<defs>
<clipPath id="clip0_2_1103">
<rect width="351" height="211" fill="white" transform="translate(-0.299805)"/>
</clipPath>
</defs>
</svg>
