<svg width="171" height="170" viewBox="0 0 171 170" fill="none" xmlns="http://www.w3.org/2000/svg">
<rect width="170.182" height="170.182" fill="#028DD8" fill-opacity="0.25"/>
<path d="M76.183 96.5908V93.1059C76.183 90.0918 76.8204 87.4702 78.0952 85.2411C79.3699 83.012 81.7018 80.6416 85.0908 78.1299C88.3555 75.7752 90.5008 73.86 91.5268 72.3844C92.584 70.9088 93.1125 69.2605 93.1125 67.4395C93.1125 65.3988 92.3663 63.8447 90.8739 62.7772C89.3815 61.7097 87.2983 61.176 84.6244 61.176C79.9607 61.176 74.644 62.7144 68.6743 65.7912L63.5908 55.4776C70.5243 51.5531 77.8775 49.5908 85.6505 49.5908C92.0554 49.5908 97.1389 51.1449 100.901 54.2531C104.694 57.3614 106.591 61.5056 106.591 66.686C106.591 70.1396 105.814 73.1222 104.259 75.6339C102.704 78.1456 99.7506 80.9712 95.3978 84.1109C92.4129 86.34 90.5163 88.0354 89.708 89.197C88.9307 90.3587 88.542 91.8814 88.542 93.7652V96.5908H76.183Z" fill="#028DD8"/>
<path d="M76.648 106.614C75.2765 107.963 74.5908 109.956 74.5908 112.591C74.5908 115.132 75.2918 117.108 76.6937 118.52C78.0956 119.901 80.0765 120.591 82.6365 120.591C85.1356 120.591 87.0861 119.885 88.488 118.473C89.8899 117.03 90.5908 115.069 90.5908 112.591C90.5908 110.018 89.8899 108.042 88.488 106.661C87.1165 105.281 85.1661 104.591 82.6365 104.591C80.0156 104.591 78.0194 105.265 76.648 106.614Z" fill="#028DD8" fill-opacity="0.5"/>
</svg>
