<svg width="20" height="20" viewBox="0 0 20 20" fill="none" xmlns="http://www.w3.org/2000/svg">
<path fill-rule="evenodd" clip-rule="evenodd" d="M5.57159 7.20854C5.57159 7.09336 5.66687 7 5.7844 7H7.2159C7.33343 7 7.42871 7.09336 7.42871 7.20854V8.00609C8.27527 8.14819 9.05709 8.48121 9.72837 8.95935L10.2906 8.39715C10.3728 8.31489 10.5062 8.31489 10.5885 8.39715L11.6038 9.41242C11.686 9.49468 11.686 9.62805 11.6038 9.71031L11.0414 10.2727C11.5192 10.9438 11.852 11.7255 11.994 12.5718H12.7872C12.9047 12.5718 13 12.6651 13 12.7803V14.2203C13 14.3355 12.9047 14.4289 12.7872 14.4289H11.994C11.852 15.2751 11.5192 16.0566 11.0414 16.7277L11.604 17.2903C11.6863 17.3726 11.6863 17.506 11.604 17.5882L10.5888 18.6035C10.5065 18.6858 10.3731 18.6858 10.2909 18.6035L9.72843 18.0411C9.05715 18.5192 8.27533 18.8523 7.42875 18.9944V19.7915C7.42875 19.9066 7.33347 20 7.21594 20H5.78444C5.66691 20 5.57164 19.9066 5.57164 19.7915V18.9946C4.72493 18.8526 3.94297 18.5197 3.27156 18.0415L2.70959 18.6035C2.62733 18.6858 2.49396 18.6858 2.4117 18.6035L1.39641 17.5882C1.31415 17.506 1.31415 17.3726 1.39641 17.2903L1.95837 16.7284C1.48033 16.0571 1.1474 15.2754 1.00537 14.4289H0.212807C0.095277 14.4289 0 14.3355 0 14.2203V12.7803C0 12.6651 0.095277 12.5718 0.212807 12.5718H1.00535C1.1474 11.725 1.48048 10.943 1.95875 10.2715L1.39647 9.70926C1.31421 9.627 1.31421 9.49363 1.39647 9.41137L2.41176 8.3961C2.49402 8.31384 2.62739 8.31384 2.70965 8.3961L3.2721 8.95854C3.94338 8.48065 4.72513 8.14786 5.57159 8.00592V7.20854ZM3.93767 13.5002C3.93767 14.9152 5.08471 16.0622 6.49967 16.0622C7.91462 16.0622 9.06166 14.9152 9.06166 13.5002C9.06166 12.0853 7.91462 10.9383 6.49967 10.9383C5.08471 10.9383 3.93767 12.0853 3.93767 13.5002Z" fill="#013A59"/>
<path opacity="0.3" fill-rule="evenodd" clip-rule="evenodd" d="M13.1357 0.820983C13.0561 0.641568 13.1369 0.431537 13.3163 0.351865L13.8877 0.098095C14.0671 0.0184231 14.2771 0.0992808 14.3568 0.278696L14.5064 0.615689C15.1044 0.462026 15.7156 0.452782 16.2965 0.571223L16.4287 0.227841C16.4992 0.0446392 16.7049 -0.0467005 16.8881 0.0238284L17.4715 0.248476C17.6547 0.319005 17.746 0.524695 17.6755 0.707897L17.5432 1.05153C18.0532 1.35327 18.5 1.7699 18.8403 2.28472L19.1777 2.13489C19.3571 2.05522 19.5671 2.13608 19.6467 2.31549L19.9005 2.88696C19.9801 3.06638 19.8993 3.27641 19.7199 3.35608L19.3826 3.50586C19.5365 4.10398 19.5459 4.71529 19.4276 5.29632L19.7722 5.42899C19.9554 5.49952 20.0467 5.70521 19.9762 5.88841L19.7515 6.47194C19.681 6.65514 19.4754 6.74648 19.2922 6.67595L18.9477 6.54332C18.6461 7.05351 18.2295 7.50059 17.7147 7.84116L17.8641 8.17777C17.9438 8.35719 17.8629 8.56722 17.6835 8.64689L17.1121 8.90066C16.9328 8.98033 16.7227 8.89948 16.6431 8.72006L16.4938 8.38376C15.8955 8.53778 15.2841 8.54725 14.7029 8.42893L14.5708 8.77216C14.5003 8.95536 14.2946 9.0467 14.1114 8.97617L13.528 8.75152C13.3448 8.68099 13.2535 8.4753 13.324 8.2921L13.4561 7.94898C12.9458 7.64725 12.4987 7.2305 12.1581 6.71547L11.8223 6.86464C11.6429 6.94431 11.4329 6.86346 11.3532 6.68404L11.0995 6.11257C11.0198 5.93316 11.1007 5.72312 11.2801 5.64345L11.6157 5.49437C11.4618 4.89583 11.4524 4.28409 11.5709 3.70269L11.2278 3.5706C11.0446 3.50007 10.9533 3.29438 11.0238 3.11118L11.2485 2.52765C11.319 2.34445 11.5246 2.25311 11.7078 2.32364L12.0511 2.4558C12.353 1.94542 12.77 1.49823 13.2852 1.15771L13.1357 0.820983ZM13.8147 5.24808C14.2278 6.17852 15.3168 6.59784 16.2472 6.18467C17.1775 5.77149 17.5968 4.68228 17.1836 3.75185C16.7705 2.82141 15.6815 2.40209 14.7511 2.81526C13.8208 3.22843 13.4015 4.31764 13.8147 5.24808Z" fill="#013A59"/>
</svg>
