<svg width="100" height="29" viewBox="0 0 100 29" fill="none" xmlns="http://www.w3.org/2000/svg">
<g filter="url(#filter0_d_2_293)">
<path d="M12.7639 3.05648C13.2134 1.94521 14.7867 1.94521 15.2361 3.05648L16.8055 6.93717C16.9965 7.40946 17.4399 7.73163 17.9481 7.76734L22.1239 8.06073C23.3196 8.14475 23.8058 9.64108 22.8878 10.4119L19.682 13.1037C19.2919 13.4313 19.1225 13.9526 19.2456 14.4469L20.2569 18.509C20.5465 19.6721 19.2737 20.5969 18.2569 19.9621L14.7062 17.745C14.2741 17.4752 13.726 17.4752 13.2938 17.745L9.74315 19.9621C8.72638 20.5969 7.45352 19.6721 7.74313 18.509L8.75447 14.4469C8.87755 13.9526 8.70817 13.4313 8.31802 13.1037L5.11223 10.4119C4.19424 9.64108 4.68043 8.14475 5.87618 8.06073L10.0519 7.76734C10.5601 7.73163 11.0035 7.40946 11.1945 6.93717L12.7639 3.05648Z" fill="#F18334"/>
<path d="M36.7639 3.05648C37.2134 1.94521 38.7867 1.94521 39.2361 3.05648L40.8055 6.93717C40.9965 7.40946 41.4399 7.73163 41.9481 7.76734L46.1239 8.06073C47.3196 8.14475 47.8058 9.64108 46.8878 10.4119L43.682 13.1037C43.2919 13.4313 43.1225 13.9526 43.2456 14.4469L44.2569 18.509C44.5465 19.6721 43.2737 20.5969 42.2569 19.9621L38.7062 17.745C38.2741 17.4752 37.726 17.4752 37.2938 17.745L33.7431 19.9621C32.7264 20.5969 31.4535 19.6721 31.7431 18.509L32.7545 14.4469C32.8776 13.9526 32.7082 13.4313 32.318 13.1037L29.1122 10.4119C28.1942 9.64108 28.6804 8.14475 29.8762 8.06073L34.0519 7.76734C34.5601 7.73163 35.0035 7.40946 35.1945 6.93717L36.7639 3.05648Z" fill="#F18334"/>
<path d="M60.7639 3.05648C61.2134 1.94521 62.7867 1.94521 63.2361 3.05648L64.8055 6.93717C64.9965 7.40946 65.4399 7.73163 65.9481 7.76734L70.1239 8.06073C71.3196 8.14475 71.8058 9.64108 70.8878 10.4119L67.682 13.1037C67.2919 13.4313 67.1225 13.9526 67.2456 14.4469L68.2569 18.509C68.5465 19.6721 67.2737 20.5969 66.2569 19.9621L62.7062 17.745C62.2741 17.4752 61.726 17.4752 61.2938 17.745L57.7431 19.9621C56.7264 20.5969 55.4535 19.6721 55.7431 18.509L56.7545 14.4469C56.8776 13.9526 56.7082 13.4313 56.318 13.1037L53.1122 10.4119C52.1942 9.64108 52.6804 8.14475 53.8762 8.06073L58.0519 7.76734C58.5601 7.73163 59.0035 7.40946 59.1945 6.93717L60.7639 3.05648Z" fill="#F18334"/>
<path d="M84.7639 3.05648C85.2134 1.94521 86.7867 1.94521 87.2361 3.05648L88.8055 6.93717C88.9965 7.40946 89.4399 7.73163 89.9481 7.76734L94.1239 8.06073C95.3196 8.14475 95.8058 9.64108 94.8878 10.4119L91.682 13.1037C91.2919 13.4313 91.1225 13.9526 91.2456 14.4469L92.2569 18.509C92.5465 19.6721 91.2737 20.5969 90.2569 19.9621L86.7062 17.745C86.2741 17.4752 85.726 17.4752 85.2938 17.745L81.7431 19.9621C80.7264 20.5969 79.4535 19.6721 79.7431 18.509L80.7545 14.4469C80.8776 13.9526 80.7082 13.4313 80.318 13.1037L77.1122 10.4119C76.1942 9.64108 76.6804 8.14475 77.8762 8.06073L82.0519 7.76734C82.5601 7.73163 83.0035 7.40946 83.1945 6.93717L84.7639 3.05648Z" fill="#F18334"/>
</g>
<defs>
<filter id="filter0_d_2_293" x="0.634277" y="2.22266" width="98.7314" height="25.9463" filterUnits="userSpaceOnUse" color-interpolation-filters="sRGB">
<feFlood flood-opacity="0" result="BackgroundImageFix"/>
<feColorMatrix in="SourceAlpha" type="matrix" values="0 0 0 0 0 0 0 0 0 0 0 0 0 0 0 0 0 0 127 0" result="hardAlpha"/>
<feOffset dy="4"/>
<feGaussianBlur stdDeviation="2"/>
<feComposite in2="hardAlpha" operator="out"/>
<feColorMatrix type="matrix" values="0 0 0 0 0 0 0 0 0 0 0 0 0 0 0 0 0 0 0.25 0"/>
<feBlend mode="normal" in2="BackgroundImageFix" result="effect1_dropShadow_2_293"/>
<feBlend mode="normal" in="SourceGraphic" in2="effect1_dropShadow_2_293" result="shape"/>
</filter>
</defs>
</svg>
