<svg width="108" height="25" viewBox="0 0 108 25" fill="none" xmlns="http://www.w3.org/2000/svg">
<path opacity="0.15" d="M11.321 2.45275C11.5347 1.79492 12.4654 1.79492 12.6791 2.45275L14.5339 8.16119C14.6295 8.45538 14.9036 8.65456 15.213 8.65456H21.2152C21.9069 8.65456 22.1945 9.53967 21.6349 9.94623L16.779 13.4742C16.5287 13.6561 16.424 13.9783 16.5196 14.2725L18.3744 19.981C18.5881 20.6388 17.8352 21.1858 17.2756 20.7793L12.4197 17.2512C12.1695 17.0694 11.8306 17.0694 11.5803 17.2512L6.72442 20.7793C6.16484 21.1858 5.41192 20.6388 5.62566 19.981L7.48045 14.2725C7.57604 13.9783 7.47133 13.6561 7.22107 13.4742L2.36517 9.94623C1.80558 9.53967 2.09317 8.65456 2.78486 8.65456H8.78709C9.09642 8.65456 9.37057 8.45538 9.46616 8.16119L11.321 2.45275Z" fill="#E57443"/>
<path d="M39.321 2.45275C39.5347 1.79492 40.4654 1.79492 40.6791 2.45275L42.5339 8.16119C42.6295 8.45538 42.9036 8.65456 43.213 8.65456H49.2152C49.9069 8.65456 50.1945 9.53967 49.6349 9.94623L44.779 13.4742C44.5287 13.6561 44.424 13.9783 44.5196 14.2725L46.3744 19.981C46.5881 20.6388 45.8352 21.1858 45.2756 20.7793L40.4197 17.2512C40.1695 17.0694 39.8306 17.0694 39.5803 17.2512L34.7244 20.7793C34.1648 21.1858 33.4119 20.6388 33.6257 19.981L35.4805 14.2725C35.576 13.9783 35.4713 13.6561 35.2211 13.4742L30.3652 9.94623C29.8056 9.53967 30.0932 8.65456 30.7849 8.65456H36.7871C37.0964 8.65456 37.3706 8.45538 37.4662 8.16119L39.321 2.45275Z" fill="#E57443"/>
<path d="M67.321 2.45275C67.5347 1.79492 68.4654 1.79492 68.6791 2.45275L70.5339 8.16119C70.6295 8.45538 70.9036 8.65456 71.213 8.65456H77.2152C77.9069 8.65456 78.1945 9.53967 77.6349 9.94623L72.779 13.4742C72.5287 13.6561 72.424 13.9783 72.5196 14.2725L74.3744 19.981C74.5881 20.6388 73.8352 21.1858 73.2756 20.7793L68.4197 17.2512C68.1695 17.0694 67.8306 17.0694 67.5803 17.2512L62.7244 20.7793C62.1648 21.1858 61.4119 20.6388 61.6257 19.981L63.4805 14.2725C63.576 13.9783 63.4713 13.6561 63.2211 13.4742L58.3652 9.94623C57.8056 9.53967 58.0932 8.65456 58.7849 8.65456H64.7871C65.0964 8.65456 65.3706 8.45538 65.4662 8.16119L67.321 2.45275Z" fill="#E57443"/>
<path d="M95.321 2.45275C95.5347 1.79492 96.4654 1.79492 96.6791 2.45275L98.5339 8.16119C98.6295 8.45538 98.9036 8.65456 99.213 8.65456H105.215C105.907 8.65456 106.194 9.53967 105.635 9.94623L100.779 13.4742C100.529 13.6561 100.424 13.9783 100.52 14.2725L102.374 19.981C102.588 20.6388 101.835 21.1858 101.276 20.7793L96.4197 17.2512C96.1695 17.0694 95.8306 17.0694 95.5803 17.2512L90.7244 20.7793C90.1648 21.1858 89.4119 20.6388 89.6257 19.981L91.4805 14.2725C91.576 13.9783 91.4713 13.6561 91.2211 13.4742L86.3652 9.94623C85.8056 9.53967 86.0932 8.65456 86.7849 8.65456H92.7871C93.0964 8.65456 93.3706 8.45538 93.4662 8.16119L95.321 2.45275Z" fill="#E57443"/>
</svg>
