<svg width="279" height="48" viewBox="0 0 279 48" fill="none" xmlns="http://www.w3.org/2000/svg">
<rect y="0.362793" width="279" height="47" rx="23.5" fill="#028DD8" fill-opacity="0.1"/>
<path d="M46.4941 20.519C46.4941 21.3804 46.1865 22.0747 45.5713 22.6021C44.9561 23.1294 44.1768 23.4604 43.2334 23.5952V23.6479C44.4053 23.7651 45.3076 24.0903 45.9404 24.6235C46.5732 25.1567 46.8896 25.8511 46.8896 26.7065C46.8896 27.4565 46.6846 28.1216 46.2744 28.7017C45.8643 29.2759 45.2578 29.7271 44.4551 30.0552C43.6523 30.3774 42.6592 30.5386 41.4756 30.5386C40.5029 30.5386 39.6387 30.48 38.8828 30.3628C38.1328 30.2397 37.4824 30.0669 36.9316 29.8442V27.5591C37.3066 27.7349 37.7256 27.8872 38.1885 28.0161C38.6572 28.1392 39.1318 28.2358 39.6123 28.3062C40.0928 28.3706 40.5381 28.4028 40.9482 28.4028C42.085 28.4028 42.9082 28.2388 43.418 27.9106C43.9336 27.5825 44.1914 27.1167 44.1914 26.5132C44.1914 25.8979 43.8193 25.4497 43.0752 25.1685C42.3311 24.8872 41.3291 24.7466 40.0693 24.7466H38.8652V22.6196H39.9463C40.9658 22.6196 41.7568 22.5552 42.3193 22.4263C42.8877 22.2915 43.2832 22.1011 43.5059 21.855C43.7344 21.603 43.8486 21.3013 43.8486 20.9497C43.8486 20.5103 43.6523 20.1616 43.2598 19.9038C42.8672 19.6401 42.2842 19.5083 41.5107 19.5083C40.8428 19.5083 40.2188 19.605 39.6387 19.7983C39.0586 19.9858 38.5166 20.2378 38.0127 20.5542L36.8262 18.7349C37.2656 18.4478 37.7344 18.1987 38.2324 17.9878C38.7363 17.7769 39.2871 17.6157 39.8848 17.5044C40.4824 17.3872 41.1504 17.3286 41.8887 17.3286C42.8555 17.3286 43.6816 17.4663 44.3672 17.7417C45.0527 18.0171 45.5771 18.395 45.9404 18.8755C46.3096 19.3501 46.4941 19.8979 46.4941 20.519ZM61.1321 23.9204C61.1321 24.9106 61.0091 25.813 60.763 26.6274C60.5169 27.436 60.1419 28.1333 59.638 28.7192C59.14 29.3052 58.5071 29.7563 57.7396 30.0728C56.972 30.3833 56.0638 30.5386 55.015 30.5386C53.9661 30.5386 53.0579 30.3833 52.2904 30.0728C51.5228 29.7563 50.887 29.3052 50.3831 28.7192C49.8851 28.1333 49.513 27.4331 49.2669 26.6187C49.0208 25.8042 48.8978 24.8989 48.8978 23.9028C48.8978 22.5728 49.1146 21.4155 49.5482 20.4312C49.9876 19.4409 50.6614 18.6733 51.5696 18.1284C52.4779 17.5835 53.6321 17.311 55.0325 17.311C56.4271 17.311 57.5726 17.5835 58.4691 18.1284C59.3714 18.6733 60.0394 19.4409 60.473 20.4312C60.9124 21.4214 61.1321 22.5845 61.1321 23.9204ZM51.7542 23.9204C51.7542 24.8169 51.8655 25.5903 52.0882 26.2407C52.3167 26.8853 52.6712 27.3833 53.1517 27.7349C53.6321 28.0806 54.2532 28.2534 55.015 28.2534C55.7884 28.2534 56.4154 28.0806 56.8958 27.7349C57.3763 27.3833 57.7249 26.8853 57.9417 26.2407C58.1644 25.5903 58.2757 24.8169 58.2757 23.9204C58.2757 22.5728 58.0238 21.5122 57.5198 20.7388C57.0159 19.9653 56.1868 19.5786 55.0325 19.5786C54.265 19.5786 53.638 19.7544 53.1517 20.106C52.6712 20.4517 52.3167 20.9497 52.0882 21.6001C51.8655 22.2446 51.7542 23.0181 51.7542 23.9204ZM74.1442 30.3628H71.4284V19.7808H68.2819C68.2116 20.3315 68.1354 20.9321 68.0534 21.5825C67.9713 22.2329 67.8864 22.8892 67.7985 23.5513C67.7106 24.2134 67.6168 24.8433 67.5172 25.4409C67.4235 26.0386 67.3297 26.563 67.236 27.0142C67.0836 27.7642 66.8756 28.4028 66.612 28.9302C66.3541 29.4517 65.9996 29.8501 65.5485 30.1255C65.1032 30.4009 64.5202 30.5386 63.7995 30.5386C63.5592 30.5386 63.3278 30.521 63.1051 30.4858C62.8883 30.4507 62.6862 30.4038 62.4987 30.3452V28.1128C62.651 28.1655 62.8034 28.2095 62.9557 28.2446C63.108 28.2739 63.275 28.2886 63.4567 28.2886C63.6911 28.2886 63.8844 28.2124 64.0368 28.0601C64.195 27.9019 64.3356 27.6353 64.4586 27.2603C64.5817 26.8794 64.7047 26.355 64.8278 25.687C64.8805 25.394 64.9508 24.981 65.0387 24.4478C65.1266 23.9087 65.2262 23.2788 65.3375 22.5581C65.4489 21.8315 65.5631 21.0405 65.6803 20.1851C65.8034 19.3296 65.9205 18.439 66.0319 17.5132H74.1442V30.3628ZM89.2304 23.9204C89.2304 24.9106 89.1074 25.813 88.8613 26.6274C88.6152 27.436 88.2402 28.1333 87.7363 28.7192C87.2382 29.3052 86.6054 29.7563 85.8379 30.0728C85.0703 30.3833 84.1621 30.5386 83.1132 30.5386C82.0644 30.5386 81.1562 30.3833 80.3886 30.0728C79.6211 29.7563 78.9853 29.3052 78.4814 28.7192C77.9834 28.1333 77.6113 27.4331 77.3652 26.6187C77.1191 25.8042 76.9961 24.8989 76.9961 23.9028C76.9961 22.5728 77.2129 21.4155 77.6464 20.4312C78.0859 19.4409 78.7597 18.6733 79.6679 18.1284C80.5761 17.5835 81.7304 17.311 83.1308 17.311C84.5254 17.311 85.6709 17.5835 86.5673 18.1284C87.4697 18.6733 88.1377 19.4409 88.5713 20.4312C89.0107 21.4214 89.2304 22.5845 89.2304 23.9204ZM79.8525 23.9204C79.8525 24.8169 79.9638 25.5903 80.1865 26.2407C80.415 26.8853 80.7695 27.3833 81.25 27.7349C81.7304 28.0806 82.3515 28.2534 83.1132 28.2534C83.8867 28.2534 84.5136 28.0806 84.9941 27.7349C85.4746 27.3833 85.8232 26.8853 86.04 26.2407C86.2627 25.5903 86.374 24.8169 86.374 23.9204C86.374 22.5728 86.122 21.5122 85.6181 20.7388C85.1142 19.9653 84.2851 19.5786 83.1308 19.5786C82.3632 19.5786 81.7363 19.7544 81.25 20.106C80.7695 20.4517 80.415 20.9497 80.1865 21.6001C79.9638 22.2446 79.8525 23.0181 79.8525 23.9204ZM97.0305 30.3628H94.3059V19.7808H90.8167V17.5132H100.52V19.7808H97.0305V30.3628ZM114.34 23.9204C114.34 24.9106 114.217 25.813 113.971 26.6274C113.725 27.436 113.35 28.1333 112.846 28.7192C112.348 29.3052 111.715 29.7563 110.948 30.0728C110.18 30.3833 109.272 30.5386 108.223 30.5386C107.174 30.5386 106.266 30.3833 105.499 30.0728C104.731 29.7563 104.095 29.3052 103.591 28.7192C103.093 28.1333 102.721 27.4331 102.475 26.6187C102.229 25.8042 102.106 24.8989 102.106 23.9028C102.106 22.5728 102.323 21.4155 102.756 20.4312C103.196 19.4409 103.87 18.6733 104.778 18.1284C105.686 17.5835 106.84 17.311 108.241 17.311C109.635 17.311 110.781 17.5835 111.677 18.1284C112.58 18.6733 113.248 19.4409 113.681 20.4312C114.121 21.4214 114.34 22.5845 114.34 23.9204ZM104.963 23.9204C104.963 24.8169 105.074 25.5903 105.296 26.2407C105.525 26.8853 105.879 27.3833 106.36 27.7349C106.84 28.0806 107.462 28.2534 108.223 28.2534C108.997 28.2534 109.624 28.0806 110.104 27.7349C110.585 27.3833 110.933 26.8853 111.15 26.2407C111.373 25.5903 111.484 24.8169 111.484 23.9204C111.484 22.5728 111.232 21.5122 110.728 20.7388C110.224 19.9653 109.395 19.5786 108.241 19.5786C107.473 19.5786 106.846 19.7544 106.36 20.106C105.879 20.4517 105.525 20.9497 105.296 21.6001C105.074 22.2446 104.963 23.0181 104.963 23.9204Z" fill="#028DD8"/>
<path opacity="0.15" d="M143.321 14.4527C143.535 13.7949 144.465 13.7949 144.679 14.4527L146.534 20.1612C146.629 20.4554 146.904 20.6546 147.213 20.6546H153.215C153.907 20.6546 154.194 21.5397 153.635 21.9462L148.779 25.4742C148.529 25.6561 148.424 25.9783 148.52 26.2725L150.374 31.981C150.588 32.6388 149.835 33.1858 149.276 32.7793L144.42 29.2512C144.169 29.0694 143.831 29.0694 143.58 29.2512L138.724 32.7793C138.165 33.1858 137.412 32.6388 137.626 31.981L139.48 26.2725C139.576 25.9783 139.471 25.6561 139.221 25.4742L134.365 21.9462C133.806 21.5397 134.093 20.6546 134.785 20.6546H140.787C141.096 20.6546 141.371 20.4554 141.466 20.1612L143.321 14.4527Z" fill="#E57443"/>
<path opacity="0.15" d="M171.321 14.4527C171.535 13.7949 172.465 13.7949 172.679 14.4527L174.534 20.1612C174.629 20.4554 174.904 20.6546 175.213 20.6546H181.215C181.907 20.6546 182.194 21.5397 181.635 21.9462L176.779 25.4742C176.529 25.6561 176.424 25.9783 176.52 26.2725L178.374 31.981C178.588 32.6388 177.835 33.1858 177.276 32.7793L172.42 29.2512C172.169 29.0694 171.831 29.0694 171.58 29.2512L166.724 32.7793C166.165 33.1858 165.412 32.6388 165.626 31.981L167.48 26.2725C167.576 25.9783 167.471 25.6561 167.221 25.4742L162.365 21.9462C161.806 21.5397 162.093 20.6546 162.785 20.6546H168.787C169.096 20.6546 169.371 20.4554 169.466 20.1612L171.321 14.4527Z" fill="#E57443"/>
<path d="M199.321 14.4527C199.535 13.7949 200.465 13.7949 200.679 14.4527L202.534 20.1612C202.629 20.4554 202.904 20.6546 203.213 20.6546H209.215C209.907 20.6546 210.194 21.5397 209.635 21.9462L204.779 25.4742C204.529 25.6561 204.424 25.9783 204.52 26.2725L206.374 31.981C206.588 32.6388 205.835 33.1858 205.276 32.7793L200.42 29.2512C200.169 29.0694 199.831 29.0694 199.58 29.2512L194.724 32.7793C194.165 33.1858 193.412 32.6388 193.626 31.981L195.48 26.2725C195.576 25.9783 195.471 25.6561 195.221 25.4742L190.365 21.9462C189.806 21.5397 190.093 20.6546 190.785 20.6546H196.787C197.096 20.6546 197.371 20.4554 197.466 20.1612L199.321 14.4527Z" fill="#E57443"/>
<path d="M227.321 14.4527C227.535 13.7949 228.465 13.7949 228.679 14.4527L230.534 20.1612C230.629 20.4554 230.904 20.6546 231.213 20.6546H237.215C237.907 20.6546 238.194 21.5397 237.635 21.9462L232.779 25.4742C232.529 25.6561 232.424 25.9783 232.52 26.2725L234.374 31.981C234.588 32.6388 233.835 33.1858 233.276 32.7793L228.42 29.2512C228.169 29.0694 227.831 29.0694 227.58 29.2512L222.724 32.7793C222.165 33.1858 221.412 32.6388 221.626 31.981L223.48 26.2725C223.576 25.9783 223.471 25.6561 223.221 25.4742L218.365 21.9462C217.806 21.5397 218.093 20.6546 218.785 20.6546H224.787C225.096 20.6546 225.371 20.4554 225.466 20.1612L227.321 14.4527Z" fill="#E57443"/>
</svg>
