<svg width="38" height="38" viewBox="0 0 38 38" fill="none" xmlns="http://www.w3.org/2000/svg">
<path opacity="0.3" d="M19.5 18C15.9101 18 13 15.0899 13 11.5C13 7.91015 15.9101 5 19.5 5C23.0899 5 26 7.91015 26 11.5C26 15.0899 23.0899 18 19.5 18Z" fill="#028DD8"/>
<path d="M5.00105 32.6987C5.62553 24.9431 11.8664 21 19.4732 21C27.187 21 33.5245 24.7264 33.9966 32.7C34.0154 33.0176 33.9966 34 32.7864 34C26.8163 34 17.9448 34 6.17209 34C5.76804 34 4.96703 33.1212 5.00105 32.6987Z" fill="#028DD8"/>
</svg>
