<svg width="40" height="38" viewBox="0 0 40 38" fill="none" xmlns="http://www.w3.org/2000/svg">
<path opacity="0.3" d="M15.6854 23.501C14.9952 23.501 14.394 23.0299 14.2289 22.3597L13.6775 20.1205C13.5999 19.8054 13.8384 19.501 14.163 19.501H35.8886C36.2126 19.501 36.4511 19.8044 36.3744 20.1192L35.8301 22.3557C35.6665 23.0279 35.0644 23.501 34.3726 23.501H15.6854Z" fill="#028DD8"/>
<path opacity="0.3" d="M17.2006 30.001C16.5131 30.001 15.9137 29.5336 15.7459 28.8669L15.1814 26.623C15.1019 26.3072 15.3407 26.001 15.6663 26.001H35.3931C35.7157 26.001 35.9538 26.3019 35.8797 26.6159L35.3532 28.8457C35.1934 29.5227 34.589 30.001 33.8934 30.001H17.2006Z" fill="#028DD8"/>
<path opacity="0.3" d="M14.156 17.001C13.4603 17.001 12.8559 16.5226 12.6961 15.8455L12.17 13.6158C12.0959 13.3019 12.3341 13.001 12.6566 13.001L37.398 13.001C37.719 13.001 37.9569 13.2992 37.8855 13.6122L37.3785 15.8346C37.2228 16.517 36.6159 17.001 35.916 17.001L14.156 17.001Z" fill="#028DD8"/>
<path fill-rule="evenodd" clip-rule="evenodd" d="M0.671881 11.6244C0.64575 12.3465 1.14355 12.9732 1.85447 13.113L5.91481 13.9115L10.5387 29.0344C10.7342 29.6737 11.3327 30.1207 12.0064 30.1306L14.1118 30.1615C14.4445 30.1664 14.6817 29.8586 14.5895 29.5418L9.31943 11.4492C9.11448 10.7456 8.43467 10.2901 7.72492 10.3367C7.56347 10.235 7.37887 10.1631 7.1773 10.1298L1.33738 9.16455C1.0357 9.11469 0.754397 9.34383 0.743377 9.6484L0.671881 11.6244Z" fill="#028DD8"/>
</svg>
