<svg width="39" height="38" viewBox="0 0 39 38" fill="none" xmlns="http://www.w3.org/2000/svg">
<path opacity="0.3" fill-rule="evenodd" clip-rule="evenodd" d="M8.01221 10.4463C8.01221 14.0361 10.9224 16.9463 14.5122 16.9463C18.1021 16.9463 21.0122 14.0361 21.0122 10.4463C21.0122 6.85644 18.1021 3.94629 14.5122 3.94629C10.9224 3.94629 8.01221 6.85644 8.01221 10.4463ZM24.0122 17.5005C24.0122 19.9858 26.0269 22.0005 28.5122 22.0005C30.9975 22.0005 33.0122 19.9858 33.0122 17.5005C33.0122 15.0153 30.9975 13.0005 28.5122 13.0005C26.0269 13.0005 24.0122 15.0153 24.0122 17.5005Z" fill="#028DD8"/>
<path fill-rule="evenodd" clip-rule="evenodd" d="M14.4854 21.0005C6.87862 21.0005 0.637735 24.9436 0.013257 32.6992C-0.0207591 33.1217 0.780243 34.0005 1.18429 34.0005H27.7986C29.0088 34.0005 29.0277 33.0181 29.0089 32.7005C28.5367 24.7269 22.1992 21.0005 14.4854 21.0005ZM31.0122 33.5005C31.0122 33.6677 31.0098 33.8344 31.005 34.0005H37.1752C38.0099 34.0005 38.0229 33.2448 38.0099 33.0005C37.6864 26.9063 33.3695 24.0374 28.096 24.0008C29.9331 26.6868 31.0122 29.9637 31.0122 33.5005Z" fill="#028DD8"/>
</svg>
