<svg width="39" height="38" viewBox="0 0 39 38" fill="none" xmlns="http://www.w3.org/2000/svg">
<path fill-rule="evenodd" clip-rule="evenodd" d="M27.1237 4.6668C26.486 4.29861 25.6706 4.51711 25.3024 5.15483L24.7427 6.12424C22.3886 5.24748 20.1348 5.37046 18.593 6.70759L6.03663 19.5371C5.35144 20.2372 5.51028 21.3955 6.35864 21.8853L23.7939 31.9516C24.6426 32.4415 25.7255 31.9995 25.9888 31.0556L30.8112 13.7672C31.2207 12.1663 30.5817 10.0331 28.211 8.11702L28.7665 7.15483C29.1347 6.51711 28.9162 5.70165 28.2784 5.33346L27.1237 4.6668Z" fill="#028DD8"/>
<path opacity="0.3" d="M9.72962 26.4437C8.66265 28.7449 9.33681 31.4134 11.3556 32.5801C13.3745 33.7469 16.0202 32.9971 17.4775 30.9216C17.6362 30.6956 17.5524 30.388 17.3133 30.2498L10.3929 26.2502C10.1538 26.112 9.84579 26.1932 9.72962 26.4437Z" fill="#028DD8"/>
</svg>
