<svg width="39" height="38" viewBox="0 0 39 38" fill="none" xmlns="http://www.w3.org/2000/svg">
<path fill-rule="evenodd" clip-rule="evenodd" d="M6.91016 15L17.5531 21.4126C17.6677 21.4816 17.7878 21.5315 17.9102 21.5631V34L7.66921 27.6752C7.19873 27.3846 6.91016 26.8564 6.91016 26.2859V15ZM31.9102 15V26.3545C31.9102 26.92 31.6216 27.4434 31.1511 27.7314L20.9102 34V21.5658C20.9351 21.5529 20.9598 21.5391 20.9843 21.5245L31.9102 15Z" fill="#028DD8"/>
<path opacity="0.3" fill-rule="evenodd" clip-rule="evenodd" d="M6.91016 11.7119C7.04565 11.5385 7.21666 11.3919 7.41604 11.2843L18.7016 5.19182C19.1753 4.93606 19.7436 4.93606 20.2174 5.19182L31.5029 11.2843C31.6566 11.3672 31.7935 11.4733 31.9102 11.597L19.5368 18.8377C19.4554 18.8853 19.3804 18.9398 19.312 19C19.2437 18.9398 19.1687 18.8853 19.0873 18.8377L6.91016 11.7119Z" fill="#028DD8"/>
</svg>
