<svg width="302" height="171" viewBox="0 0 302 171" fill="none" xmlns="http://www.w3.org/2000/svg">
<path d="M75.4993 23.9598C87.3855 -37.1179 114.794 -14.0172 193.791 -14.0172C384.217 -14.0172 298.873 -14.3058 312.166 149.195C317.726 217.581 25.3666 209.343 7.18623 141.469C-5.90148 92.6086 56.1669 123.299 75.4993 23.9598Z" fill="#E6F4FC"/>
<path d="M54.4994 28.5978C64.1271 49.7786 24.2483 103.082 4.08631 79.362C-1.8634 72.3623 0.207414 52.2097 12.5485 36.6941C25.3147 20.6441 44.8718 7.41702 54.4994 28.5978Z" fill="#E6F4FC"/>
<rect x="137.715" y="13.7847" width="73.6284" height="143.031" rx="5" fill="#67BBE8"/>
<rect x="141.238" y="27.541" width="66.5841" height="109.1" fill="white"/>
<circle cx="174.53" cy="146.414" r="6" fill="#028DD8"/>
<rect x="163.983" y="19.7466" width="21.0927" height="1.76585" rx="0.882926" fill="#028DD8"/>
<rect x="211.344" y="101.453" width="59.5236" height="55.3633" fill="#67BBE8"/>
<rect x="198.223" y="101.453" width="59.5236" height="55.3633" fill="#B4DDF4"/>
<rect x="227.55" y="101.751" width="1" height="55.0649" fill="#028DD8"/>
<rect x="223.852" y="101.453" width="8.26678" height="20.6669" fill="#67BBE8"/>
<rect x="223.852" y="147.217" width="8.26678" height="9.5987" fill="#67BBE8"/>
<rect x="220.529" y="62.9932" width="41.6701" height="38.7576" fill="#028DD8"/>
<rect x="211.344" y="62.9932" width="41.6701" height="38.7576" fill="#67BBE8"/>
<rect x="231.576" y="63.2021" width="1" height="38.5488" fill="#028DD8"/>
<rect x="229.285" y="62.9932" width="5.78724" height="19.7439" fill="#B4DDF4"/>
<rect x="229.285" y="96.6201" width="5.78724" height="5.13087" fill="#B4DDF4"/>
<rect x="210.058" y="47.2593" width="28.1269" height="15.7344" fill="#FFAD73"/>
<rect x="203.858" y="47.2598" width="28.1269" height="15.7344" fill="#FFDBC1"/>
<rect x="217.515" y="47.3433" width="1" height="15.6496" fill="#F18334"/>
<rect x="215.968" y="58.5767" width="3.90632" height="4.41669" fill="#FFAD73"/>
<path d="M231.529 43.1279H244.245L238.616 47.3427H225.9L231.529 43.1279Z" fill="#F18334"/>
<path d="M210.877 43.0439H198.16L203.789 47.2587H216.506L210.877 43.0439Z" fill="#FFAD73"/>
<path d="M97.2444 45.8701C97.2444 43.1087 99.4829 40.8701 102.244 40.8701H163.53C166.291 40.8701 168.53 43.1087 168.53 45.8701V55.7848C168.53 58.5463 166.291 60.7848 163.53 60.7848H97.2444V52.4077V45.8701Z" fill="#028DD8"/>
<path d="M88.8672 60.7848H97.2444V52.4077L88.8672 60.7848Z" fill="#028DD8"/>
<path d="M137.855 94.1509C137.855 91.3895 140.094 89.1509 142.855 89.1509H177.998C180.76 89.1509 182.998 91.3895 182.998 94.1509V104.066C182.998 106.827 180.76 109.066 177.998 109.066H137.855V100.688V94.1509Z" fill="#67BBE8"/>
<path d="M129.478 109.066H137.855V100.688L129.478 109.066Z" fill="#67BBE8"/>
<path d="M194.893 70.3857C194.893 67.6243 192.654 65.3857 189.893 65.3857H150.789C148.028 65.3857 145.789 67.6243 145.789 70.3857V80.3005C145.789 83.0619 148.028 85.3005 150.789 85.3005H194.893V76.9233V70.3857Z" fill="#B4DDF4"/>
<path d="M203.27 85.3005H194.893V76.9233L203.27 85.3005Z" fill="#B4DDF4"/>
</svg>
