<svg width="179" height="287" viewBox="0 0 179 287" fill="none" xmlns="http://www.w3.org/2000/svg">
<g clip-path="url(#clip0_2_6402)">
<path d="M21.4645 76.0984C13.098 100.222 0.0809619 152.435 19.1152 152.604C98.4724 153.308 64.8704 267.953 177.843 286.93C262.956 301.227 305.954 201.974 286.331 125.904C266.708 49.8343 251.406 15.5128 186.308 3.88089C107.24 -10.2474 42.0231 16.8199 21.4645 76.0984Z" fill="#E6F4FC"/>
<path d="M0.413791 191.916C2.25167 182.827 34.7269 155.693 54.1136 217.86C66.9908 259.153 42.5596 239.387 30.6168 231.004C20.5112 223.912 -3.66433 212.084 0.413791 191.916Z" fill="#E6F4FC"/>
<path fill-rule="evenodd" clip-rule="evenodd" d="M66.8557 194.126V194.126H71.9008V194.126H84.5134C84.5134 193.298 84.1219 192.478 83.3613 191.713C82.6007 190.948 81.4858 190.252 80.0803 189.667C78.6749 189.081 77.0064 188.617 75.1701 188.3C74.1166 188.118 73.0198 187.987 71.9008 187.908V145.357H66.8557V187.908C65.7365 187.987 64.6396 188.118 63.586 188.3C61.7497 188.617 60.0812 189.081 58.6757 189.667C57.2703 190.252 56.1554 190.948 55.3948 191.713C54.6342 192.478 54.2427 193.298 54.2427 194.126L66.8557 194.126Z" fill="#028DD8"/>
<path fill-rule="evenodd" clip-rule="evenodd" d="M90.3994 135.268H49.1976V142.803C49.1974 142.814 49.1973 142.825 49.1973 142.836C49.1973 142.847 49.1974 142.858 49.1976 142.869V143.677H49.4057C50.8332 146.529 59.4194 148.722 69.7982 148.722C80.177 148.722 88.7631 146.529 90.1906 143.677H90.3994V135.268Z" fill="#67BBE8"/>
<ellipse cx="69.7982" cy="135.268" rx="20.6009" ry="5.88597" fill="#028DD8"/>
<path d="M81.0175 142.435C63.3311 145.616 56.3588 133.174 55.0835 126.555L67.0703 117.991L90.7999 116.11C95.7192 115.369 105.223 114.426 107.198 114.426C109.629 114.426 117.158 112.213 124.76 123.325C130.842 132.215 140.264 156.216 144.214 167.106C141.888 169.951 135.791 172.292 133.034 173.106L121.63 155.994C123.493 148.586 124.85 133.148 115.369 130.659C103.518 127.548 103.126 138.459 81.0175 142.435Z" fill="#67BBE8"/>
<path d="M110.58 187.401L110.769 183.193H115.801V187.401H110.58Z" fill="#FFDBC1"/>
<path d="M137.223 174.301L135.789 171.254L140.236 168.062L142.532 171.254L137.223 174.301Z" fill="#FFDBC1"/>
<path d="M107.687 143.408C99.0837 144.527 87.5426 143.194 80.3086 142.543C84.5933 141.892 94.8848 138.679 103.966 132.69C113.048 126.7 119.327 130.194 121.052 132.69C128.397 141.934 123.435 171.114 120.374 183.103C115.7 184.796 109.969 183.809 107.687 183.103C108.569 171.252 109.348 158.841 107.687 143.408Z" fill="#028DD8"/>
<path d="M82.158 62.8407C70.3432 60.0525 61.3121 65.9591 58.2735 69.2609C46.4587 82.4682 51.4057 113.163 55.356 126.86C65.4205 118.789 83.7382 116.16 91.639 115.854C88.4301 109.103 89.4511 96.5318 90.3627 91.0899L97.2911 100.812L116.071 102.096L118.988 94.942C117.712 94.5752 114.248 93.2911 110.601 91.0899C106.043 88.3383 97.2911 73.2965 94.5562 69.2609C92.3683 66.0323 86.7162 65.2253 84.1636 65.2253L82.158 62.8407Z" fill="white"/>
<path d="M119.385 96.3516C117.241 95.0549 113.259 96.1491 111.536 96.8583L110.58 104.152C112.015 104.118 115.174 104.071 116.322 104.152C117.758 104.253 120.725 102.936 121.874 103.038C123.022 103.139 122.065 97.9725 119.385 96.3516Z" fill="#FFDBC1"/>
<path d="M93.0325 59.4159C95.6483 55.084 95.867 46.8226 95.6494 43.2334L89.0784 40.5884C87.7815 43.2959 85.0798 48.1995 84.648 46.1539C84.1082 43.5969 80.8145 44.7484 80.79 48.2754C80.7704 51.0969 77.9286 58.7284 76.5102 62.1914C76.456 66.2204 81.6923 68.3167 84.3173 68.8612L87.4465 63.4825C88.2186 63.932 90.4167 63.7479 93.0325 59.4159Z" fill="#FFDBC1"/>
<path d="M83.0702 68.0013H83.8093L86.0271 72.0027L84.7502 76.8755L88.7173 100.5L83.0375 109.203L76.9453 99.644L82.1433 76.8755H82.0955L80.4403 72.1215L83.0702 68.0013Z" fill="#F18334"/>
<path d="M98.7443 44.0567C96.7876 46.4379 89.7191 42.991 89.4138 42.8132C89.7874 43.9697 86.5856 52.1757 84.9381 56.1341L87.5635 57.6635C89.9442 54.2718 93.1287 55.1208 93.5958 56.5666C94.063 58.0124 90.8688 67.3014 90.5635 67.1236L80.1839 61.0773C82.0347 57.0976 85.4179 48.6172 84.1445 46.5341C82.5527 43.9302 79.776 47.2306 81.5347 48.8691C83.0165 50.2495 79.4375 55.4729 78.7108 57.2851L77.0012 56.2892C78.5209 54.6595 78.0426 49.0156 79.4408 42.9559C80.8391 36.8961 83.0998 34.273 89.0929 36.758C95.086 39.243 97.0118 39.0235 99.4026 39.4102C101.793 39.7968 100.701 41.6755 98.7443 44.0567Z" fill="#028DD8"/>
<path d="M77.0084 61.2739C77.9439 63.2588 80.5292 67.3093 83.3862 67.6323C85.0191 67.3093 86.2432 66.0175 86.6512 65.412C87.5577 67.6323 86.639 70.9865 86.1628 72.2985L83.3862 67.6323L80.1764 73.0459C78.1696 71.3638 74.4219 66.4347 74.4229 62.1806L77.0084 61.2739Z" fill="#E6F4FC"/>
<path d="M61.5345 67.1086C68.0865 63.5946 72.5645 72.6164 74.1222 78.1339C76.3105 85.8846 83.4421 93.3856 86.3884 94.4161C95.1904 97.4946 106.433 96.4183 112.261 96.4183V104.571C106.09 107.132 91.5992 109.901 86.3884 110.037C79.8749 110.208 72.5045 106.205 67.0195 100.571C61.5344 94.9372 50.3928 73.0839 61.5345 67.1086Z" fill="#E6F4FC"/>
<path fill-rule="evenodd" clip-rule="evenodd" d="M91.9376 52.9105C92.4276 52.4384 92.8513 51.693 93.052 50.7783C93.2526 49.8635 93.1798 49.0089 92.9324 48.3748C92.6831 47.7357 92.2924 47.3903 91.8852 47.3008C91.478 47.2113 90.9787 47.3611 90.4849 47.8369C89.9949 48.309 89.5711 49.0544 89.3705 49.9691C89.1698 50.8839 89.2427 51.7385 89.49 52.3726C89.7394 53.0117 90.13 53.3571 90.5372 53.4466C90.9445 53.5361 91.4437 53.3863 91.9376 52.9105ZM90.4006 54.0697C91.7613 54.3687 93.2273 52.9564 93.675 50.9152C93.6971 50.8144 93.7163 50.714 93.7327 50.6141L93.7318 50.7934C94.2062 50.7958 94.465 50.8194 94.6595 50.8638C94.699 50.8729 94.7364 50.8828 94.7731 50.894C94.7557 50.963 94.7392 51.0327 94.7238 51.1032C94.3258 52.9177 94.7386 54.5502 95.6457 54.7496C96.5528 54.9489 97.6108 53.6397 98.0088 51.8252C98.4067 50.0108 97.994 48.3783 97.0869 48.1789C96.3232 48.0111 95.4527 48.9123 94.959 50.284C94.9086 50.2686 94.8563 50.2545 94.8012 50.2419C94.5462 50.1837 94.2441 50.1598 93.7886 50.1558C93.927 48.4226 93.2117 46.9392 92.0219 46.6777C90.6612 46.3787 89.1952 47.791 88.7475 49.8322C88.2997 51.8735 89.0399 53.7706 90.4006 54.0697ZM97.3858 51.6883C97.2034 52.5198 96.8752 53.2044 96.5221 53.6415C96.1421 54.1117 95.8728 54.1464 95.7824 54.1265C95.6919 54.1066 95.4619 53.9622 95.3137 53.3759C95.1759 52.8309 95.1644 52.0716 95.3468 51.2402C95.5291 50.4087 95.8573 49.7241 96.2105 49.287C96.5905 48.8168 96.8597 48.7821 96.9502 48.802C97.0407 48.8219 97.2706 48.9663 97.4189 49.5526C97.5567 50.0976 97.5681 50.8568 97.3858 51.6883Z" fill="#028DD8"/>
<path d="M110.228 187.401H115.732C123.317 190.466 127.786 193.163 129.072 194.128H110.057C109.4 192.204 109.897 188.842 110.228 187.401Z" fill="#028DD8"/>
<path d="M136.499 174.032L141.943 171.553C150.872 171.274 156.548 172.023 158.269 172.432L139.46 180.999C137.915 179.325 136.842 175.657 136.499 174.032Z" fill="#028DD8"/>
<path d="M167.758 78.9327L155.815 104.999H120.414L132.072 78.9327H167.758Z" fill="#67BBE8"/>
<path d="M108.898 104.999H120.414M120.414 104.999H155.815L167.758 78.9327H132.072L120.414 104.999Z" stroke="#67BBE8" stroke-width="3.82726" stroke-linecap="round" stroke-linejoin="round"/>
<path fill-rule="evenodd" clip-rule="evenodd" d="M90.3994 106.678H172.803V111.723H90.3994V106.678ZM162.713 194.128V111.724H167.758V194.128H162.713ZM97.1262 111.724V194.128H102.171V111.724H97.1262Z" fill="#028DD8"/>
<g clip-path="url(#clip1_2_6402)">
<rect x="144.844" y="13.168" width="6.1751" height="33.522" rx="0.899648" fill="#028DD8"/>
<rect opacity="0.3" x="131.612" y="26.4003" width="10.5859" height="6.1751" rx="0.899648" fill="#028DD8"/>
<rect opacity="0.3" x="154.548" y="26.4003" width="10.5859" height="6.1751" rx="0.899648" fill="#028DD8"/>
</g>
<g clip-path="url(#clip2_2_6402)">
<rect x="118.312" y="42.7511" width="3.41222" height="18.5235" rx="0.497125" fill="#028DD8"/>
<rect opacity="0.5" x="111" y="50.0625" width="5.84952" height="3.41222" rx="0.497125" fill="#67BBE8"/>
<rect opacity="0.5" x="123.674" y="50.0625" width="5.84952" height="3.41222" rx="0.497125" fill="#67BBE8"/>
</g>
</g>
<defs>
<clipPath id="clip0_2_6402">
<rect width="179" height="287" fill="white"/>
</clipPath>
<clipPath id="clip1_2_6402">
<rect width="33.522" height="33.522" fill="white" transform="translate(131.612 13.168)"/>
</clipPath>
<clipPath id="clip2_2_6402">
<rect width="18.5235" height="18.5235" fill="white" transform="translate(111 42.75)"/>
</clipPath>
</defs>
</svg>
