<svg width="245" height="276" viewBox="0 0 245 276" fill="none" xmlns="http://www.w3.org/2000/svg">
<g filter="url(#filter0_d_2_611)">
<path d="M55.2299 59.2287C46.0651 83.9204 31.6731 137.317 52.0252 137.316C136.877 137.313 99.9077 254.601 220.54 272.938C311.423 286.753 358.3 185.085 338.005 107.642C317.71 30.1992 301.659 -4.68303 232.154 -15.9602C147.733 -29.6577 77.7502 -1.44558 55.2299 59.2287Z" fill="#E6F4FC"/>
<path d="M31.6715 177.6C33.7191 168.309 68.6911 140.325 88.8588 203.584C102.255 245.602 76.309 225.655 63.6143 217.21C52.8724 210.065 27.1282 198.216 31.6715 177.6Z" fill="#E6F4FC"/>
<path fill-rule="evenodd" clip-rule="evenodd" d="M103 175.5V227.644C101.777 227.746 100.577 227.902 99.4204 228.109C97.1758 228.511 95.1364 229.1 93.4185 229.843C91.7006 230.586 90.3379 231.468 89.4082 232.439C88.4785 233.409 88 234.449 88 235.5H103H106.5H109H125C125 234.449 124.521 233.409 123.592 232.439C122.662 231.468 121.299 230.586 119.581 229.843C117.864 229.1 115.824 228.511 113.58 228.109C112.109 227.846 110.57 227.666 109 227.573V175.5H103Z" fill="#028DD8"/>
<path fill-rule="evenodd" clip-rule="evenodd" d="M132 163.5H82V172.5V173.5H82.2532C83.9862 176.893 94.4055 179.5 107 179.5C119.594 179.5 130.014 176.893 131.747 173.5H132V172.5V163.5Z" fill="#67BBE8"/>
<ellipse cx="107" cy="163.5" rx="25" ry="7" fill="#028DD8"/>
<path d="M120.715 171.981C99.0863 175.872 90.5597 160.652 89 152.556L103.659 142.081L132.678 139.779C138.694 138.873 150.316 137.72 152.733 137.72C155.705 137.72 164.912 135.013 174.21 148.605C181.648 159.479 193.169 188.839 198 202.16C195.156 205.64 187.7 208.503 184.327 209.5L170.381 188.567C172.66 179.506 174.319 160.621 162.725 157.576C148.232 153.77 147.752 167.117 120.715 171.981Z" fill="#67BBE8"/>
<path d="M157 227.5L157.231 222.278H163.374V227.5H157Z" fill="#FFDBC1"/>
<path d="M189.52 211.242L187.769 207.461L193.198 203.5L196 207.461L189.52 211.242Z" fill="#FFDBC1"/>
<path d="M153.789 173.693C143.171 175.064 128.928 173.431 120 172.633C125.288 171.834 137.989 167.896 149.197 160.554C160.405 153.212 168.154 157.495 170.283 160.554C179.348 171.887 173.224 207.657 169.447 222.354C163.678 224.429 156.605 223.219 153.789 222.354C154.877 207.826 155.839 192.612 153.789 173.693Z" fill="#028DD8"/>
<path d="M122.118 74.3864C107.72 70.9843 96.7143 78.1913 93.0113 82.22C78.6134 98.3351 84.642 135.788 89.456 152.5C101.721 142.652 124.043 139.444 133.672 139.071C129.761 130.834 131.005 115.495 132.116 108.855L140.559 120.717L163.445 122.284L167 113.555C165.445 113.107 161.223 111.541 156.779 108.855C151.225 105.498 140.559 87.1442 137.227 82.22C134.56 78.2807 127.673 77.296 124.562 77.296L122.118 74.3864Z" fill="white"/>
<path d="M167.472 115.217C164.922 113.675 160.187 114.976 158.138 115.819L157 124.493C158.707 124.453 162.464 124.397 163.83 124.493C165.537 124.614 169.066 123.048 170.432 123.168C171.798 123.289 170.659 117.144 167.472 115.217Z" fill="#FFDBC1"/>
<path d="M135.732 70.2821C138.931 64.9769 139.11 54.8062 138.8 50.3839L130.612 47.0531C129.032 50.3726 125.733 56.3807 125.174 53.8569C124.475 50.7021 120.398 52.0832 120.407 56.426C120.415 59.9003 116.972 69.266 115.25 73.5145C115.227 78.4753 121.752 81.1154 125.017 81.8153L128.842 75.227C129.806 75.7892 132.533 75.5872 135.732 70.2821Z" fill="#FFDBC1"/>
<path d="M123.284 80.5H124.163L126.801 85.453L125.282 91.4845L130 120.728L123.245 131.5L116 119.668L122.182 91.4845H122.125L120.156 85.6L123.284 80.5Z" fill="#F18334"/>
<path d="M142.53 51.5839C140.134 54.498 131.424 50.2351 131.047 50.0154C131.512 51.4368 127.611 61.4953 125.602 66.3469L128.838 68.236C131.751 64.0835 135.672 65.14 136.253 66.9168C136.834 68.6936 132.947 80.0816 132.571 79.8619L119.776 72.3934C122.035 67.5165 126.158 57.122 124.582 54.5593C122.613 51.3558 119.212 55.3946 121.383 57.4137C123.212 59.1148 118.833 65.5105 117.947 67.7317L115.84 66.5016C117.702 64.5079 117.088 57.5779 118.781 50.1458C120.473 42.7137 123.243 39.5038 130.625 42.5812C138.008 45.6587 140.376 45.3979 143.319 45.8832C146.261 46.3686 144.926 48.6698 142.53 51.5839Z" fill="#028DD8"/>
<path d="M116.075 72.5C117.187 74.8606 120.262 79.6777 123.66 80.0619C125.602 79.6777 127.058 78.1414 127.543 77.4213C128.621 80.0619 127.528 84.0508 126.962 85.6112L123.66 80.0619L119.843 86.5C117.456 84.4995 112.999 78.6376 113 73.5783L116.075 72.5Z" fill="#E6F4FC"/>
<path d="M96.8445 79.4759C104.873 75.1362 110.36 86.2782 112.268 93.0924C114.95 102.664 123.688 111.928 127.298 113.201C138.083 117.003 151.859 115.674 159 115.674V125.743C151.439 128.906 133.683 132.325 127.298 132.494C119.317 132.704 110.286 127.761 103.565 120.803C96.8444 113.844 83.1926 86.8556 96.8445 79.4759Z" fill="#E6F4FC"/>
<path fill-rule="evenodd" clip-rule="evenodd" d="M133.817 62.5434C134.396 61.9855 134.898 61.103 135.135 60.0186C135.373 58.9342 135.286 57.9221 134.993 57.1723C134.698 56.4163 134.238 56.0122 133.763 55.9075C133.288 55.8029 132.701 55.9766 132.118 56.539C131.539 57.0969 131.037 57.9794 130.8 59.0638C130.563 60.1482 130.65 61.1603 130.942 61.9101C131.237 62.6661 131.697 63.0702 132.172 63.1748C132.647 63.2795 133.234 63.1058 133.817 62.5434ZM132.005 63.9371C133.624 64.2935 135.366 62.6143 135.897 60.1865C135.923 60.0699 135.945 59.9537 135.964 59.8381L135.963 60.0499C136.527 60.0531 136.834 60.0813 137.064 60.1339C137.111 60.1448 137.156 60.1568 137.2 60.1703C137.181 60.2485 137.162 60.3276 137.145 60.4075C136.672 62.5656 137.164 64.5076 138.243 64.7452C139.321 64.9828 140.579 63.4259 141.051 61.2679C141.523 59.1098 141.032 57.1678 139.953 56.9302C139.047 56.7306 138.014 57.7977 137.427 59.4239C137.367 59.4053 137.304 59.3883 137.237 59.3731C136.933 59.3035 136.574 59.2749 136.033 59.2699C136.192 57.2141 135.342 55.4562 133.93 55.1453C132.312 54.7889 130.569 56.4681 130.038 58.8959C129.506 61.3237 130.387 63.5808 132.005 63.9371ZM140.289 61.1C140.073 62.0864 139.685 62.8973 139.267 63.4139C138.817 63.971 138.505 64.0039 138.41 63.9829C138.314 63.9619 138.044 63.8007 137.868 63.1057C137.705 62.4613 137.691 61.5617 137.907 60.5753C138.123 59.589 138.511 58.7781 138.929 58.2615C139.379 57.7043 139.691 57.6715 139.786 57.6925C139.882 57.7134 140.152 57.8746 140.328 58.5696C140.491 59.214 140.505 60.1137 140.289 61.1Z" fill="#028DD8"/>
<path d="M156.608 227.5H163.438C172.851 231.145 178.396 234.352 179.992 235.5H156.395C155.58 233.212 156.197 229.213 156.608 227.5Z" fill="#028DD8"/>
<path d="M188.946 211.022L195.677 207.95C206.648 207.45 213.603 208.242 215.71 208.7L192.454 219.314C190.587 217.337 189.338 212.962 188.946 211.022Z" fill="#028DD8"/>
<path d="M227 94.5L212.392 126.5H169.087L183.348 94.5H227Z" fill="#67BBE8"/>
<path d="M155 126.5H169.087M169.087 126.5H212.392L227 94.5H183.348L169.087 126.5Z" stroke="#67BBE8" stroke-width="4.68198" stroke-linecap="round" stroke-linejoin="round"/>
<path fill-rule="evenodd" clip-rule="evenodd" d="M132 128.5H233V134.5H227V235.5H221V134.5H146V235.5H140V134.5H132V128.5Z" fill="#028DD8"/>
<g clip-path="url(#clip0_2_611)">
<rect x="199" y="14.5" width="8" height="41" rx="1.10056" fill="#028DD8"/>
<rect opacity="0.3" x="183" y="30.5" width="13" height="8" rx="1.10056" fill="#028DD8"/>
<rect opacity="0.3" x="211" y="30.5" width="13" height="8" rx="1.10056" fill="#028DD8"/>
</g>
<g clip-path="url(#clip1_2_611)">
<rect x="167" y="50.5" width="4" height="23" rx="0.608146" fill="#028DD8"/>
<rect opacity="0.5" x="158" y="59.5" width="7" height="4" rx="0.608146" fill="#67BBE8"/>
<rect opacity="0.5" x="174" y="59.5" width="7" height="4" rx="0.608146" fill="#67BBE8"/>
</g>
</g>
<defs>
<filter id="filter0_d_2_611" x="27.1394" y="-19.3604" width="319.548" height="301.569" filterUnits="userSpaceOnUse" color-interpolation-filters="sRGB">
<feFlood flood-opacity="0" result="BackgroundImageFix"/>
<feColorMatrix in="SourceAlpha" type="matrix" values="0 0 0 0 0 0 0 0 0 0 0 0 0 0 0 0 0 0 127 0" result="hardAlpha"/>
<feOffset dy="4"/>
<feGaussianBlur stdDeviation="2"/>
<feComposite in2="hardAlpha" operator="out"/>
<feColorMatrix type="matrix" values="0 0 0 0 0 0 0 0 0 0 0 0 0 0 0 0 0 0 0.25 0"/>
<feBlend mode="normal" in2="BackgroundImageFix" result="effect1_dropShadow_2_611"/>
<feBlend mode="normal" in="SourceGraphic" in2="effect1_dropShadow_2_611" result="shape"/>
</filter>
<clipPath id="clip0_2_611">
<rect width="41" height="41" fill="white" transform="translate(183 14.5)"/>
</clipPath>
<clipPath id="clip1_2_611">
<rect width="23" height="23" fill="white" transform="translate(158 50.5)"/>
</clipPath>
</defs>
</svg>
