<svg width="293" height="171" viewBox="0 0 293 171" fill="none" xmlns="http://www.w3.org/2000/svg">
<path d="M64.5257 -14.0173C94.2691 -50.3596 148.109 -14.0173 214.882 -14.0173C375.841 -14.0173 303.704 -14.3059 314.94 149.194C319.639 217.581 38.8076 229.156 84.9265 127.135C110.82 69.856 24.4614 34.9357 64.5257 -14.0173Z" fill="#E6F4FC"/>
<ellipse cx="181.964" cy="145.23" rx="80.2445" ry="9.01831" fill="#B4DDF4"/>
<path d="M260.577 18.256C253.166 18.509 243.998 12.7655 235.09 5.59726L272.355 86.2881C268.374 65.1284 276.413 59.4859 279.427 57.1832C286.674 51.6475 312.002 40.0804 327.937 33.5805C339.033 25.104 326.772 4.49666 317.663 5.09708C290.212 14.6483 271.482 17.8837 260.577 18.256Z" fill="#B4DDF4"/>
<ellipse cx="244.343" cy="49.5494" rx="22.4991" ry="50.0495" transform="rotate(-25.3768 244.343 49.5494)" fill="#67BBE8"/>
<mask id="mask0_1181_139" style="mask-type:alpha" maskUnits="userSpaceOnUse" x="214" y="3" width="60" height="93">
<ellipse cx="244.226" cy="49.6051" rx="22.3693" ry="50.0495" transform="rotate(-25.3768 244.226 49.6051)" fill="#79C3FE"/>
</mask>
<g mask="url(#mask0_1181_139)">
<path d="M264.611 34.1809C260.055 37.6613 248.981 38.6359 240.533 35.5026C244.767 44.792 251.947 62.6745 251.832 62.982C255.861 52.1976 263.999 48.9966 269.139 46.5471L267.569 41.9724L264.611 34.1809Z" fill="#028DD8"/>
</g>
<ellipse cx="243.947" cy="49.8178" rx="7.90142" ry="15.4282" transform="rotate(-25.3768 243.947 49.8178)" fill="#B4DDF4"/>
<path d="M166.392 145.884V143.575H168.8V145.884H166.392Z" fill="#FFDBC1"/>
<path d="M194.891 145.34V143.031H197.412V145.34H194.891Z" fill="#FFDBC1"/>
<path d="M168.978 145.23H166.336C162.694 146.723 160.547 148.036 159.929 148.505H169.058C169.374 147.569 169.137 145.932 168.978 145.23Z" fill="#028DD8"/>
<path d="M194.77 145.23H197.412C201.055 146.723 203.201 148.036 203.819 148.505H194.691C194.374 147.569 194.612 145.932 194.77 145.23Z" fill="#028DD8"/>
<path d="M191.771 84.5239H172.526C168.635 105.471 167.18 118.099 165.357 143.584H169.936C175.659 111.009 179.667 108.174 181.677 98.9367C184.513 108.462 186.343 108.593 194.356 143.584H198.298C198.298 139.933 195.973 108.462 191.771 84.5239Z" fill="#028DD8"/>
<path d="M193.039 19.9234C193.252 20.7642 193.432 22.6687 193.52 23.7685L196.043 25.4999C199.998 21.4627 205.774 14.1626 200.264 16.0685C198.706 16.6074 197.899 16.9862 194.675 19.5716C194.59 19.4881 193.654 17.1213 193.52 16.9862C193.145 16.6084 192.337 17.1462 193.039 19.9234Z" fill="#FFDBC1"/>
<path d="M171.018 19.8544C170.872 20.7093 170.841 22.6221 170.84 23.7253L168.14 24.8325C163.881 21.1177 157.684 13.9285 163.327 15.3967C164.922 15.8118 167.123 18.3412 169.36 19.6319C169.437 19.542 169.584 15.8267 169.749 15.7324C171.347 14.8218 171.2 18.7858 171.018 19.8544Z" fill="#FFDBC1"/>
<path d="M187.636 42.1021C187.337 44.7832 185.176 46.5761 184.133 47.1374L178.883 42.209C177.49 41.248 175.305 38.7609 177.712 36.5004C180.722 33.6748 182.799 38.41 184.358 38.806C185.917 39.202 188.01 38.7506 187.636 42.1021Z" fill="#67BBE8"/>
<path d="M185.545 53.4819H178.765C173.879 48.3305 171.151 32.4828 171.151 23.1738H166.102C166.102 47.3142 170.881 52.1172 172.345 59.7465L169.97 90.5545H194.124C192.846 82.0288 192.238 59.7465 192.238 59.7465C192.238 59.7465 197.547 39.4343 198.355 23.1738L193.002 23.6788C191.487 39.1313 188.05 49.6461 185.545 53.4819Z" fill="#67BBE8"/>
<path d="M184.685 46.5182L183.68 52.6458L179.7 51.9929L179.957 50.4242C179.327 50.7235 177.844 51.0441 176.961 49.9327C176.078 48.8213 177.841 42.4938 178.352 41.4521C178.863 40.4105 184.316 41.8206 184.479 42.4571C184.642 43.0937 184.157 44.418 184.157 44.418C185.846 43.5272 186.197 46.2627 184.685 46.5182Z" fill="#FFDBC1"/>
<path d="M178.387 53.9015L179.034 51.933L183.624 51.6377L185.842 53.9015H178.387Z" fill="#67BBE8"/>
<path d="M213.555 48.7607C213.93 46.2864 216.438 43.0723 217.644 41.7745L220.944 42.8401C220.583 44.2799 220.061 46.9989 220.865 46.3564C221.869 45.5532 222.747 47.0305 221.65 48.3809C220.773 49.4613 219.449 53.263 218.897 55.0288C217.654 56.5798 215.029 55.7262 213.871 55.1055L214.381 52.0708C213.95 51.9984 213.181 51.235 213.555 48.7607Z" fill="#FFDBC1"/>
<path d="M241.082 121.973L239.543 121.565L238.765 124.506L240.304 124.913L241.082 121.973Z" fill="#FFDBC1"/>
<path d="M244.665 122.286L241.662 121.491C240.943 121.712 240.445 122.702 240.102 125.391C240.047 125.817 241.195 129.075 240.631 131.209L242.194 131.623L243.489 126.728C243.52 125.944 243.514 124.34 243.235 124.196C242.956 124.052 243.695 124.288 244.099 124.424L244.665 122.286Z" fill="#028DD8"/>
<path d="M211.022 145.876L211.496 142.001L208.398 141.622L207.923 145.496L211.022 145.876Z" fill="#FFDBC1"/>
<path d="M212.1 145.386L212.102 148.492L209.889 148.493C209.917 148.068 209.956 147.293 209.889 147.6C209.821 147.906 208.272 148.324 207.507 148.495L202.443 148.498L202.442 146.881C204.65 146.88 207.504 144.935 207.93 144.878C210.617 144.52 211.702 144.748 212.1 145.386Z" fill="#028DD8"/>
<path d="M240.307 119.837C225.823 116.282 214.98 108.368 218.497 89.5823L199.446 83.9106C193.92 102.003 200.863 127.763 206.998 142.886L213.276 142.886C209.895 130.214 205.451 115.383 206.998 101.271C210.176 111.203 212.798 113.98 218.497 118.325C222.147 121.108 236.092 124.989 238.859 125.894L240.307 119.837Z" fill="#B4DDF4"/>
<path d="M202.116 24.6192C201.908 25.5079 201.712 28.0478 201.64 29.2067L199.017 31.0754C194.781 26.9002 197.784 20.7227 199.066 20.6924C200.349 20.6621 200 29.0295 200.505 26.3138C201.01 23.5982 202.376 23.5083 202.116 24.6192Z" fill="#FFDBC1"/>
<path d="M244.764 41.2141C244.279 41.9876 242.613 43.9144 241.84 44.7811L242.359 47.9596C248.307 48.0299 250.581 41.5487 249.7 40.6165C248.819 39.6842 243.121 45.8217 244.694 43.5514C246.268 41.281 245.37 40.2473 244.764 41.2141Z" fill="#FFDBC1"/>
<path d="M206.088 61.3415C204.132 66.7273 199.185 78.1379 197.273 90.8954L220.795 94.5854C220.795 94.5854 222.741 67.8203 224.068 65.1655C225.395 62.5106 238.462 53.7646 244.665 49.1423L241.346 43.4533C238.312 46.5822 225.083 52.4909 218.848 55.0541C217.472 55.6201 217.043 56.5563 213.853 54.2057C210.663 51.8551 205.108 35.8766 202.73 28.1812L197.273 31.1194L206.088 61.3415Z" fill="#028DD8"/>
<path d="M216.131 40.803C216.129 42.306 219.946 43.2334 220.121 43.2626C219.61 43.5777 218.239 47.6474 217.617 49.6429L216.12 49.3915C216.28 47.378 214.783 46.6972 214.144 47.0911C213.506 47.4849 211.788 51.9569 211.962 51.9862L217.88 52.98C218.43 50.9128 219.818 46.6837 220.97 46.3045C222.409 45.8304 222.432 47.9338 221.234 47.9949C220.225 48.0463 219.946 51.1198 219.651 52.0247L220.626 52.1884C220.558 51.1031 222.533 49.1441 223.918 46.4416C225.302 43.739 225.264 42.0503 222.166 41.1006C219.068 40.1508 218.396 39.4652 217.352 38.8604C216.308 38.2556 216.133 39.3 216.131 40.803Z" fill="#028DD8"/>
<path d="M107.299 93.0626C111.672 95.1204 111.693 96.37 111.157 96.7376C109.258 97.0806 105.198 98.1601 104.154 99.7342C103.11 101.308 101.635 101.001 101.028 100.65L105.058 95.7745L108.332 95.4509L106.638 93.8629L107.299 93.0626Z" fill="#67BBE8"/>
<path d="M104.157 99.6246C107 97.3965 109.376 98.4031 110.209 99.1849L112.027 96.9851C111.238 96.288 109.946 96.107 109.399 96.1036C105.377 96.2349 104.228 98.5057 104.157 99.6246Z" fill="#FFDBC1"/>
<path d="M160.266 148.699L159.228 148.704C157.451 143.994 158.719 143.197 159.574 143.388C161.055 144.625 164.486 147.048 166.364 146.84C168.242 146.632 168.951 147.961 169.072 148.652L162.746 148.686L160.398 146.38L160.266 148.699Z" fill="#67BBE8"/>
<path d="M166.532 146.829C163.435 146.724 161.932 142.712 161.755 141.404L158.846 141.372C158.853 143.629 160.373 146.117 160.945 146.395C163.915 148.379 165.908 147.511 166.532 146.829Z" fill="#FFDBC1"/>
<path d="M156.863 142.364L164.603 142.364C164.603 131.147 164.962 123.28 163.919 115.053C163.245 109.739 155.838 89.9615 150.522 89.7481L144.38 92.4395C146.872 103.813 152.291 106.232 154.873 117.405C156.863 126.015 156.863 131.917 156.863 142.364Z" fill="#67BBE8"/>
<path d="M109.294 100.431C142.327 130.634 147.698 102.898 149.215 90.8586L136.453 92.7718C136.208 98.8884 135.666 104.008 132.972 105.454C128.286 106.043 119.475 101.176 112.866 94.4658L109.294 100.431Z" fill="#67BBE8"/>
<path d="M139.802 64.1299L145.232 62.9224L151.939 90.9767L144.005 92.1662L139.802 64.1299Z" fill="white"/>
<path d="M141.292 64.7511C142.768 64.991 145.596 63.8475 144.921 61.275C146.227 61.2394 148.069 62.3614 148.582 58.7104C149.096 55.0595 148.125 51.6537 147.575 50.4071L140.206 52.1362L139.555 57.2776L141.292 64.7511Z" fill="#FFDBC1"/>
<path d="M107.8 61.1702C108.126 61.7391 109.266 63.1696 109.796 63.8138C114.065 66.1417 125.048 69.5103 134.819 64.3618L135.756 71.2296C128.427 73.3498 115.255 70.8844 109.332 66.0794C105.062 65.9585 103.617 61.2427 104.276 60.5992C104.935 59.9556 108.847 64.5235 107.783 62.8492C106.72 61.1749 107.394 60.459 107.8 61.1702Z" fill="#FFDBC1"/>
<path d="M167.597 45.3177C167.617 45.9729 167.392 47.7884 167.278 48.6142C164.854 52.8303 160.288 63.1474 146.23 62.158L149.952 68.1035C162.57 64.226 166.318 57.4955 168.857 50.3034C172.434 47.9692 171.202 43.1933 170.304 42.9891C169.405 42.7849 168.458 48.7235 168.489 46.7402C168.521 44.7569 167.572 44.4988 167.597 45.3177Z" fill="#FFDBC1"/>
<path d="M133.904 65.0574C134.887 63.5835 137.617 63.4701 139.348 62.096L141.041 63.3242L145.913 97.9625L134.264 99.3194C134.337 94.0388 134.498 83.0891 134.563 81.5352C134.645 79.5928 132.92 66.5314 133.904 65.0574Z" fill="#67BBE8"/>
<path d="M149.968 96.2565L144.809 63.1825L145.614 62.3475L148.195 61.4517C148.066 62.1632 150.272 65.9982 151.063 68.9875C152.352 73.8582 151.413 79.0284 152.922 85.6811C154.13 91.0033 155.406 90.7946 156.095 91.6864L149.968 96.2565Z" fill="#67BBE8"/>
<path d="M141.955 53.6392C144.941 53.2406 146.823 51.5832 147.392 50.8044C147.564 51.9537 147.962 52.7175 148.263 52.9784C148.69 57.0413 147 60.2886 146.309 60.5147C145.756 60.6955 143.879 60.0222 143.879 60.0222L144.731 63.1826C150.85 63.9402 151.193 57.382 158.16 54.8714C158.16 54.8714 153.143 54.67 148.403 49.4899C147.947 48.9908 146.015 46.0532 141.022 47.4138C137.027 48.5022 137.999 52.6018 126.065 54.5416C127.692 62.4986 137.474 58.1711 141.193 64.7778L141.579 55.1644C141.255 55.1518 140.651 54.9364 140.827 54.1755C141.003 53.4147 141.652 53.501 141.955 53.6392Z" fill="#F18334"/>
</svg>
