<svg width="245" height="275" viewBox="0 0 245 275" fill="none" xmlns="http://www.w3.org/2000/svg">
<g clip-path="url(#clip0_2_72)">
<path d="M55.4404 58.8836C46.3074 83.5781 31.9239 136.647 52.2761 136.672C137.127 136.778 100.476 253.413 221.131 271.915C312.032 285.855 359.065 185.025 338.67 107.51C318.275 29.9957 301.329 -5.15797 231.81 -16.5311C147.372 -30.345 77.8825 -1.79747 55.4404 58.8836Z" fill="#E6F4FC"/>
<path d="M32.1291 176.874C34.1647 167.58 68.5009 139.945 88.7501 203.267C102.2 245.327 76.3102 224.384 63.6047 215.918C52.8536 208.755 27.6122 197.496 32.1291 176.874Z" fill="#E6F4FC"/>
<path fill-rule="evenodd" clip-rule="evenodd" d="M103 175V227.144C101.777 227.246 100.577 227.402 99.4204 227.609C97.1758 228.011 95.1364 228.6 93.4185 229.343C91.7006 230.086 90.3379 230.968 89.4082 231.939C88.4785 232.909 88 233.949 88 235H103H106.5H109H125C125 233.949 124.521 232.909 123.592 231.939C122.662 230.968 121.299 230.086 119.581 229.343C117.864 228.6 115.824 228.011 113.58 227.609C112.109 227.346 110.57 227.166 109 227.073V175H103Z" fill="#028DD8"/>
<path fill-rule="evenodd" clip-rule="evenodd" d="M132 163H82V172V173H82.2532C83.9862 176.392 94.4055 179 107 179C119.595 179 130.014 176.392 131.747 173H132V172V163Z" fill="#67BBE8"/>
<ellipse cx="107" cy="163" rx="25" ry="7" fill="#028DD8"/>
<path d="M121 171C99.3708 174.88 90.5597 160.074 89 152L104 142L133 139C139.016 138.096 150.584 137 153 137C155.973 137 164.703 134.444 174 148C181.438 158.844 193.169 188.715 198 202C195.156 205.47 187.373 208.006 184 209L170 188C172.279 178.963 174.594 160.036 163 157C148.507 153.204 148.036 166.149 121 171Z" fill="#67BBE8"/>
<path d="M157 227V222H163V227H157Z" fill="#FFDBC1"/>
<path d="M190 211L188 207L193 203L196 207L190 211Z" fill="#FFDBC1"/>
<path d="M154 173C143.317 174.367 128.983 172.796 120 172C125.321 171.204 137.723 167.32 149 160C160.277 152.68 167.858 156.95 170 160C179.121 171.299 172.8 207.346 169 222C163.196 224.069 156.833 222.862 154 222C155.095 207.515 156.063 191.862 154 173Z" fill="#028DD8"/>
<path d="M122 73.9996C107.64 70.5921 96.6935 77.9644 93.0002 81.9996C78.6398 98.1408 84.1987 135.26 89.0002 152C101.233 142.136 124.397 139.373 134 139C130.1 130.75 130.892 114.65 132 108L141 120L163 122L167 113C165.449 112.551 161.432 110.69 157 108C151.46 104.637 140.324 86.9318 137 81.9996C134.341 78.0539 128.103 76.9996 125 76.9996L122 73.9996Z" fill="white"/>
<path d="M167 115C164.367 113.445 160.115 114.15 158 115L157 124C158.763 123.959 162.59 123.903 164 124C165.763 124.121 168.59 122.878 170 123C171.41 123.121 170.291 116.943 167 115Z" fill="#FFDBC1"/>
<path d="M135.601 70.0216C138.799 64.7179 139.427 54.4948 139.091 50.0582L130.816 46.3857C129.241 49.7066 126.013 56.2003 125.436 53.6662C124.715 50.4987 120.806 51.2582 120.838 55.6136C120.863 59.098 116.974 68.9478 115.259 73.1996C115.263 78.1746 122.187 80.7645 125.483 81.4836L129.497 74.5639C130.472 75.1327 132.403 75.3253 135.601 70.0216Z" fill="#FFDBC1"/>
<path d="M123 80H124L127 85L125 91L130 120L123 131L116 119L122 91L120 85L123 80Z" fill="#F18334"/>
<path d="M141.985 51.2948C139.603 54.192 131.722 49.9285 131.347 49.7089C131.813 51.1254 127.407 61.1053 125.415 65.9327L128.868 67.9515C131.763 63.8221 135.972 64.8827 136.554 66.6533C137.137 68.4239 133.003 79.6355 132.627 79.4159L119.678 71.8455C121.919 66.9934 125.96 56.3024 124.385 53.7471C122.415 50.5529 119.349 54.6884 121.516 56.7035C123.342 58.4013 118.607 65.0207 117.729 67.2309L116.002 66.2215C117.854 64.2399 117.171 56.7468 118.843 49.3489C120.515 41.9511 123.537 39.4189 130.902 42.4985C138.266 45.5781 140.333 44.6044 143.266 45.0938C146.2 45.5831 144.367 48.3976 141.985 51.2948Z" fill="#028DD8"/>
<path d="M116 72C117.085 74.3606 120.686 79.6158 124 80C125.894 79.6158 127.527 77.7201 128 77C129.052 79.6406 127.552 83.4396 127 85L124 80L120 86C117.672 83.9995 112.999 78.0593 113 73L116 72Z" fill="#E6F4FC"/>
<path d="M97.0002 78.9998C105.054 74.6567 110.085 86.1803 112 92.9998C114.69 102.579 123.378 111.726 127 113C137.82 116.805 151.836 115 159 115V125C151.415 128.165 133.406 131.831 127 132C118.993 132.211 110.743 126.963 104 120C97.2577 113.036 83.3042 86.3853 97.0002 78.9998Z" fill="#E6F4FC"/>
<path fill-rule="evenodd" clip-rule="evenodd" d="M133.818 62.0442C134.397 61.4863 134.899 60.6039 135.136 59.5195C135.373 58.435 135.286 57.4229 134.993 56.6729C134.698 55.9169 134.238 55.5127 133.763 55.408C133.288 55.3033 132.702 55.4769 132.118 56.0393C131.539 56.5972 131.038 57.4796 130.8 58.564C130.563 59.6485 130.65 60.6606 130.943 61.4106C131.238 62.1666 131.698 62.5708 132.173 62.6755C132.648 62.7802 133.235 62.6066 133.818 62.0442ZM132.007 63.4378C133.625 63.7944 135.367 62.1153 135.898 59.6874C135.941 59.4904 135.975 59.2944 136 59.1006L135.998 59.3903C136.557 59.3934 136.858 59.43 137.083 59.4893C137.136 59.5034 137.186 59.519 137.236 59.5364C137.203 59.658 137.173 59.7818 137.145 59.9076C136.673 62.0657 137.165 64.008 138.244 64.2457C139.322 64.4834 140.58 62.9266 141.052 60.7685C141.524 58.6104 141.032 56.6682 139.953 56.4305C139.071 56.2361 138.07 57.2414 137.476 58.7942C137.413 58.7725 137.349 58.7525 137.281 58.7345C136.97 58.6526 136.603 58.6148 136.044 58.61C136.147 56.6239 135.305 54.9487 133.93 54.6457C132.312 54.2891 130.57 55.9682 130.038 58.3961C129.507 60.824 130.389 63.0812 132.007 63.4378ZM140.29 60.6006C140.074 61.587 139.685 62.3979 139.268 62.9144C138.818 63.4716 138.506 63.5044 138.41 63.4834C138.315 63.4624 138.045 63.3012 137.869 62.6061C137.706 61.9617 137.692 61.0619 137.907 60.0756C138.123 59.0892 138.512 58.2783 138.929 57.7617C139.379 57.2046 139.691 57.1718 139.786 57.1928C139.882 57.2137 140.152 57.375 140.328 58.07C140.491 58.7145 140.505 59.6142 140.29 60.6006Z" fill="#028DD8"/>
<path d="M157 227H163C172.316 230.645 178.413 233.852 179.992 235H155.992C155.185 232.712 156.594 228.713 157 227Z" fill="#028DD8"/>
<path d="M189.26 210.386L195.627 207.478C206.496 207.022 213.619 207.735 215.708 208.201L192.058 219.002C190.2 217.021 189.655 212.325 189.26 210.386Z" fill="#028DD8"/>
<path d="M227 94L212 126H169L183 94H227Z" fill="#67BBE8"/>
<path d="M155 126H169M169 126H212L227 94H183L169 126Z" stroke="#67BBE8" stroke-width="4.68198" stroke-linecap="round" stroke-linejoin="round"/>
<path fill-rule="evenodd" clip-rule="evenodd" d="M132 128H233V134H132V128ZM221 235V134H227V235H221ZM140 134V235H146V134H140Z" fill="#028DD8"/>
<g clip-path="url(#clip1_2_72)">
<rect x="199" y="14" width="8" height="41" rx="1.10056" fill="#028DD8"/>
<rect opacity="0.3" x="183" y="30" width="13" height="8" rx="1.10056" fill="#028DD8"/>
<rect opacity="0.3" x="211" y="30" width="13" height="8" rx="1.10056" fill="#028DD8"/>
</g>
<rect x="167" y="50" width="4" height="23" rx="0.608146" fill="#028DD8"/>
<rect opacity="0.5" x="158" y="59" width="7" height="4" rx="0.608146" fill="#67BBE8"/>
<rect opacity="0.5" x="174" y="59" width="7" height="4" rx="0.608146" fill="#67BBE8"/>
</g>
<defs>
<clipPath id="clip0_2_72">
<rect width="245" height="275" fill="white"/>
</clipPath>
<clipPath id="clip1_2_72">
<rect width="41" height="41" fill="white" transform="translate(183 14)"/>
</clipPath>
</defs>
</svg>
