<svg width="30" height="31" viewBox="0 0 30 31" fill="none" xmlns="http://www.w3.org/2000/svg">
<path fill-rule="evenodd" clip-rule="evenodd" d="M16 27.3628V16.3628H27V22.859C27 25.3464 24.9836 27.3628 22.4962 27.3628H16ZM14 27.3628V16.3628H3V22.859C3 25.3464 5.01643 27.3628 7.50382 27.3628H14ZM27 7.86661V14.3628H16V3.36279L22.4962 3.36279C24.9836 3.36279 27 5.37922 27 7.86661ZM14 14.3628V3.36279L7.50382 3.36279C5.01643 3.36279 3 5.37922 3 7.86661L3 14.3628H14ZM15 1.36279H14L7.50382 1.36279C3.91186 1.36279 1 4.27465 1 7.86661L1 14.3628V15.3628V16.3628L1 22.859C1 26.4509 3.91186 29.3628 7.50382 29.3628H14H15H16H22.4962C26.0881 29.3628 29 26.4509 29 22.859V16.3628V15.3628V14.3628V7.86661C29 4.27465 26.0881 1.36279 22.4962 1.36279L16 1.36279H15ZM5 9.36279H8V12.3628H10V9.36279H12V7.36279H10V5.36279H8V7.36279H5V9.36279ZM5.29289 20.0699L6.58579 21.3628L5.29289 22.6557L6.70711 24.0699L8 22.777L10.2426 25.0196L11.6569 23.6054L9.41421 21.3628L11.6569 19.1202L10.2426 17.7059L8 19.9486L6.70711 18.6557L5.29289 20.0699ZM18 10.3628H21.5H25V8.36279H21.5H18V10.3628ZM21.5 22.3628H18V20.3628H21.5H25V22.3628H21.5ZM22 18.8628C22 19.1389 21.7761 19.3628 21.5 19.3628C21.2239 19.3628 21 19.1389 21 18.8628C21 18.5867 21.2239 18.3628 21.5 18.3628C21.7761 18.3628 22 18.5867 22 18.8628ZM21.5 25.3628C21.7761 25.3628 22 25.1389 22 24.8628C22 24.5867 21.7761 24.3628 21.5 24.3628C21.2239 24.3628 21 24.5867 21 24.8628C21 25.1389 21.2239 25.3628 21.5 25.3628Z" fill="#028DD8"/>
</svg>
