<svg width="279" height="48" viewBox="0 0 279 48" fill="none" xmlns="http://www.w3.org/2000/svg">
<rect y="0.362793" width="279" height="47" rx="23.5" fill="#028DD8" fill-opacity="0.1"/>
<path d="M43.0752 19.5962C42.0498 19.5962 41.2559 19.9829 40.6934 20.7563C40.1309 21.5239 39.8496 22.5962 39.8496 23.9731C39.8496 26.8384 40.9248 28.271 43.0752 28.271C43.9775 28.271 45.0703 28.0454 46.3535 27.5942V29.8794C45.2988 30.3188 44.1211 30.5386 42.8203 30.5386C40.9512 30.5386 39.5215 29.9731 38.5312 28.8423C37.541 27.7056 37.0459 26.0767 37.0459 23.9556C37.0459 22.6196 37.2891 21.4507 37.7754 20.4487C38.2617 19.4409 38.959 18.6704 39.8672 18.1372C40.7812 17.5981 41.8506 17.3286 43.0752 17.3286C44.3232 17.3286 45.5771 17.6304 46.8369 18.2339L45.958 20.4487C45.4775 20.2202 44.9941 20.021 44.5078 19.8511C44.0215 19.6812 43.5439 19.5962 43.0752 19.5962ZM56.6761 30.3628H49.2757V17.5132H56.6761V19.7456H52.0003V22.5669H56.3509V24.7993H52.0003V28.1128H56.6761V30.3628ZM62.2702 23.5601H63.1666C64.0045 23.5601 64.6315 23.396 65.0475 23.0679C65.4635 22.7339 65.6715 22.2505 65.6715 21.6177C65.6715 20.979 65.4957 20.5073 65.1442 20.2026C64.7985 19.8979 64.2536 19.7456 63.5094 19.7456H62.2702V23.5601ZM68.4225 21.521C68.4225 22.9038 67.9889 23.9614 67.1217 24.6938C66.2604 25.4263 65.0329 25.7925 63.4391 25.7925H62.2702V30.3628H59.5455V17.5132H63.65C65.2086 17.5132 66.3922 17.8501 67.2008 18.5239C68.0153 19.1919 68.4225 20.1909 68.4225 21.521ZM78.4287 30.3628H71.0283V17.5132H78.4287V19.7456H73.7529V22.5669H78.1035V24.7993H73.7529V28.1128H78.4287V30.3628ZM84.0227 22.4438H85.095C86.7708 22.4438 88.0657 22.7837 88.9798 23.4634C89.8938 24.1431 90.3509 25.104 90.3509 26.3462C90.3509 29.0239 88.5813 30.3628 85.0423 30.3628H81.2981V17.5132H89.4192V19.7632H84.0227V22.4438ZM84.0227 28.1304H84.9368C85.8567 28.1304 86.5305 27.9839 86.9583 27.6909C87.386 27.3921 87.5999 26.9438 87.5999 26.3462C87.5999 25.7544 87.3831 25.3296 86.9495 25.0718C86.5159 24.8081 85.7718 24.6763 84.7171 24.6763H84.0227V28.1304ZM95.6988 23.5601H96.5953C97.4332 23.5601 98.0602 23.396 98.4762 23.0679C98.8922 22.7339 99.1002 22.2505 99.1002 21.6177C99.1002 20.979 98.9244 20.5073 98.5729 20.2026C98.2271 19.8979 97.6822 19.7456 96.9381 19.7456H95.6988V23.5601ZM101.851 21.521C101.851 22.9038 101.418 23.9614 100.55 24.6938C99.6891 25.4263 98.4615 25.7925 96.8678 25.7925H95.6988V30.3628H92.9742V17.5132H97.0787C98.6373 17.5132 99.8209 17.8501 100.629 18.5239C101.444 19.1919 101.851 20.1909 101.851 21.521ZM116.12 23.9204C116.12 26.0474 115.593 27.6821 114.538 28.8247C113.483 29.9673 111.972 30.5386 110.003 30.5386C108.034 30.5386 106.522 29.9673 105.468 28.8247C104.413 27.6821 103.886 26.0415 103.886 23.9028C103.886 21.7642 104.413 20.1323 105.468 19.0073C106.528 17.8765 108.046 17.311 110.02 17.311C111.995 17.311 113.504 17.8794 114.547 19.0161C115.596 20.1528 116.12 21.7876 116.12 23.9204ZM106.742 23.9204C106.742 25.356 107.015 26.437 107.559 27.1636C108.104 27.8901 108.919 28.2534 110.003 28.2534C112.177 28.2534 113.264 26.8091 113.264 23.9204C113.264 21.0259 112.183 19.5786 110.02 19.5786C108.936 19.5786 108.119 19.9448 107.568 20.6772C107.018 21.4038 106.742 22.4849 106.742 23.9204Z" fill="#028DD8"/>
<path opacity="0.15" d="M143.321 14.4527C143.535 13.7949 144.465 13.7949 144.679 14.4527L146.534 20.1612C146.629 20.4554 146.904 20.6546 147.213 20.6546H153.215C153.907 20.6546 154.194 21.5397 153.635 21.9462L148.779 25.4742C148.529 25.6561 148.424 25.9783 148.52 26.2725L150.374 31.981C150.588 32.6388 149.835 33.1858 149.276 32.7793L144.42 29.2512C144.169 29.0694 143.831 29.0694 143.58 29.2512L138.724 32.7793C138.165 33.1858 137.412 32.6388 137.626 31.981L139.48 26.2725C139.576 25.9783 139.471 25.6561 139.221 25.4742L134.365 21.9462C133.806 21.5397 134.093 20.6546 134.785 20.6546H140.787C141.096 20.6546 141.371 20.4554 141.466 20.1612L143.321 14.4527Z" fill="#E57443"/>
<path opacity="0.15" d="M171.321 14.4527C171.535 13.7949 172.465 13.7949 172.679 14.4527L174.534 20.1612C174.629 20.4554 174.904 20.6546 175.213 20.6546H181.215C181.907 20.6546 182.194 21.5397 181.635 21.9462L176.779 25.4742C176.529 25.6561 176.424 25.9783 176.52 26.2725L178.374 31.981C178.588 32.6388 177.835 33.1858 177.276 32.7793L172.42 29.2512C172.169 29.0694 171.831 29.0694 171.58 29.2512L166.724 32.7793C166.165 33.1858 165.412 32.6388 165.626 31.981L167.48 26.2725C167.576 25.9783 167.471 25.6561 167.221 25.4742L162.365 21.9462C161.806 21.5397 162.093 20.6546 162.785 20.6546H168.787C169.096 20.6546 169.371 20.4554 169.466 20.1612L171.321 14.4527Z" fill="#E57443"/>
<path opacity="0.15" d="M199.321 14.4527C199.535 13.7949 200.465 13.7949 200.679 14.4527L202.534 20.1612C202.629 20.4554 202.904 20.6546 203.213 20.6546H209.215C209.907 20.6546 210.194 21.5397 209.635 21.9462L204.779 25.4742C204.529 25.6561 204.424 25.9783 204.52 26.2725L206.374 31.981C206.588 32.6388 205.835 33.1858 205.276 32.7793L200.42 29.2512C200.169 29.0694 199.831 29.0694 199.58 29.2512L194.724 32.7793C194.165 33.1858 193.412 32.6388 193.626 31.981L195.48 26.2725C195.576 25.9783 195.471 25.6561 195.221 25.4742L190.365 21.9462C189.806 21.5397 190.093 20.6546 190.785 20.6546H196.787C197.096 20.6546 197.371 20.4554 197.466 20.1612L199.321 14.4527Z" fill="#E57443"/>
<path d="M227.321 14.4527C227.535 13.7949 228.465 13.7949 228.679 14.4527L230.534 20.1612C230.629 20.4554 230.904 20.6546 231.213 20.6546H237.215C237.907 20.6546 238.194 21.5397 237.635 21.9462L232.779 25.4742C232.529 25.6561 232.424 25.9783 232.52 26.2725L234.374 31.981C234.588 32.6388 233.835 33.1858 233.276 32.7793L228.42 29.2512C228.169 29.0694 227.831 29.0694 227.58 29.2512L222.724 32.7793C222.165 33.1858 221.412 32.6388 221.626 31.981L223.48 26.2725C223.576 25.9783 223.471 25.6561 223.221 25.4742L218.365 21.9462C217.806 21.5397 218.093 20.6546 218.785 20.6546H224.787C225.096 20.6546 225.371 20.4554 225.466 20.1612L227.321 14.4527Z" fill="#E57443"/>
</svg>
