<svg width="241" height="202" viewBox="0 0 241 202" fill="none" xmlns="http://www.w3.org/2000/svg">
<rect x="0.823242" y="0.0322266" width="240" height="60" rx="30" fill="#028DD8" fill-opacity="0.1"/>
<path d="M54.7618 26.6582C53.9642 26.6582 53.3467 26.959 52.9092 27.5605C52.4717 28.1576 52.253 28.9915 52.253 30.0625C52.253 32.291 53.0892 33.4053 54.7618 33.4053C55.4636 33.4053 56.3135 33.2298 57.3116 32.8789V34.6562C56.4913 34.998 55.5752 35.1689 54.5635 35.1689C53.1097 35.1689 51.9978 34.7292 51.2276 33.8496C50.4574 32.9655 50.0723 31.6986 50.0723 30.0488C50.0723 29.0098 50.2614 28.1006 50.6397 27.3213C51.0179 26.5374 51.5603 25.9382 52.2666 25.5234C52.9776 25.1042 53.8093 24.8945 54.7618 24.8945C55.7325 24.8945 56.7077 25.1292 57.6875 25.5986L57.0039 27.3213C56.6302 27.1436 56.2543 26.9886 55.876 26.8564C55.4978 26.7243 55.1263 26.6582 54.7618 26.6582ZM65.3402 35.0322H59.5844V25.0381H65.3402V26.7744H61.7035V28.9688H65.0873V30.7051H61.7035V33.2822H65.3402V35.0322ZM69.6912 29.7412H70.3884C71.0401 29.7412 71.5278 29.6136 71.8513 29.3584C72.1749 29.0986 72.3367 28.7227 72.3367 28.2305C72.3367 27.7337 72.2 27.3669 71.9265 27.1299C71.6576 26.8929 71.2338 26.7744 70.655 26.7744H69.6912V29.7412ZM74.4763 28.1553C74.4763 29.2308 74.1391 30.0534 73.4646 30.623C72.7947 31.1927 71.8399 31.4775 70.6004 31.4775H69.6912V35.0322H67.572V25.0381H70.7644C71.9767 25.0381 72.8972 25.3001 73.5261 25.8242C74.1596 26.3438 74.4763 27.1208 74.4763 28.1553ZM82.2589 35.0322H76.503V25.0381H82.2589V26.7744H78.6222V28.9688H82.006V30.7051H78.6222V33.2822H82.2589V35.0322ZM86.6098 28.873H87.4438C88.7472 28.873 89.7544 29.1374 90.4653 29.666C91.1763 30.1947 91.5317 30.9421 91.5317 31.9082C91.5317 33.9909 90.1554 35.0322 87.4028 35.0322H84.4907V25.0381H90.8071V26.7881H86.6098V28.873ZM86.6098 33.2959H87.3208C88.0363 33.2959 88.5604 33.182 88.8931 32.9541C89.2257 32.7217 89.3921 32.373 89.3921 31.9082C89.3921 31.4479 89.2235 31.1175 88.8862 30.917C88.549 30.7119 87.9702 30.6094 87.1499 30.6094H86.6098V33.2959ZM95.6913 29.7412H96.3885C97.0402 29.7412 97.5278 29.6136 97.8514 29.3584C98.175 29.0986 98.3368 28.7227 98.3368 28.2305C98.3368 27.7337 98.2 27.3669 97.9266 27.1299C97.6577 26.8929 97.2339 26.7744 96.6551 26.7744H95.6913V29.7412ZM100.476 28.1553C100.476 29.2308 100.139 30.0534 99.4647 30.623C98.7948 31.1927 97.84 31.4775 96.6004 31.4775H95.6913V35.0322H93.5721V25.0381H96.7645C97.9767 25.0381 98.8973 25.3001 99.5262 25.8242C100.16 26.3438 100.476 27.1208 100.476 28.1553ZM111.574 30.0215C111.574 31.6758 111.164 32.9473 110.344 33.8359C109.524 34.7246 108.348 35.1689 106.817 35.1689C105.285 35.1689 104.11 34.7246 103.289 33.8359C102.469 32.9473 102.059 31.6712 102.059 30.0078C102.059 28.3444 102.469 27.0752 103.289 26.2002C104.114 25.3206 105.294 24.8809 106.83 24.8809C108.366 24.8809 109.54 25.3229 110.351 26.207C111.167 27.0911 111.574 28.3626 111.574 30.0215ZM104.28 30.0215C104.28 31.138 104.492 31.9788 104.916 32.5439C105.34 33.109 105.974 33.3916 106.817 33.3916C108.507 33.3916 109.353 32.2682 109.353 30.0215C109.353 27.7702 108.512 26.6445 106.83 26.6445C105.987 26.6445 105.351 26.9294 104.923 27.499C104.495 28.0641 104.28 28.9049 104.28 30.0215Z" fill="#028DD8"/>
<path opacity="0.15" d="M135.72 21.9238C135.914 21.3284 136.756 21.3284 136.95 21.9238L138.435 26.4955C138.522 26.7618 138.77 26.942 139.05 26.942H143.857C144.483 26.942 144.743 27.7431 144.236 28.1111L140.348 30.9366C140.121 31.1011 140.026 31.3928 140.113 31.6591L141.598 36.2308C141.792 36.8262 141.11 37.3213 140.604 36.9533L136.715 34.1278C136.488 33.9633 136.182 33.9633 135.955 34.1278L132.066 36.9533C131.56 37.3213 130.878 36.8262 131.072 36.2308L132.557 31.6591C132.644 31.3928 132.549 31.1011 132.322 30.9366L128.433 28.1111C127.927 27.7431 128.187 26.942 128.813 26.942H133.62C133.9 26.942 134.148 26.7618 134.235 26.4955L135.72 21.9238Z" fill="#E57443"/>
<path opacity="0.15" d="M155.72 21.9238C155.914 21.3284 156.756 21.3284 156.95 21.9238L158.435 26.4955C158.522 26.7618 158.77 26.942 159.05 26.942H163.857C164.483 26.942 164.743 27.7431 164.236 28.1111L160.348 30.9366C160.121 31.1011 160.026 31.3928 160.113 31.6591L161.598 36.2308C161.792 36.8262 161.11 37.3213 160.604 36.9533L156.715 34.1278C156.488 33.9633 156.182 33.9633 155.955 34.1278L152.066 36.9533C151.56 37.3213 150.878 36.8262 151.072 36.2308L152.557 31.6591C152.644 31.3928 152.549 31.1011 152.322 30.9366L148.433 28.1111C147.927 27.7431 148.187 26.942 148.813 26.942H153.62C153.9 26.942 154.148 26.7618 154.235 26.4955L155.72 21.9238Z" fill="#E57443"/>
<path opacity="0.15" d="M175.72 21.9238C175.914 21.3284 176.756 21.3284 176.95 21.9238L178.435 26.4955C178.522 26.7618 178.77 26.942 179.05 26.942H183.857C184.483 26.942 184.743 27.7431 184.236 28.1111L180.348 30.9366C180.121 31.1011 180.026 31.3928 180.113 31.6591L181.598 36.2308C181.792 36.8262 181.11 37.3213 180.604 36.9533L176.715 34.1278C176.488 33.9633 176.182 33.9633 175.955 34.1278L172.066 36.9533C171.56 37.3213 170.878 36.8262 171.072 36.2308L172.557 31.6591C172.644 31.3928 172.549 31.1011 172.322 30.9366L168.433 28.1111C167.927 27.7431 168.187 26.942 168.813 26.942H173.62C173.9 26.942 174.148 26.7618 174.235 26.4955L175.72 21.9238Z" fill="#E57443"/>
<path d="M195.72 21.9238C195.914 21.3284 196.756 21.3284 196.95 21.9238L198.435 26.4955C198.522 26.7618 198.77 26.942 199.05 26.942H203.857C204.483 26.942 204.743 27.7431 204.236 28.1111L200.348 30.9366C200.121 31.1011 200.026 31.3928 200.113 31.6591L201.598 36.2308C201.792 36.8262 201.11 37.3213 200.604 36.9533L196.715 34.1278C196.488 33.9633 196.182 33.9633 195.955 34.1278L192.066 36.9533C191.56 37.3213 190.878 36.8262 191.072 36.2308L192.557 31.6591C192.644 31.3928 192.549 31.1011 192.322 30.9366L188.433 28.1111C187.927 27.7431 188.187 26.942 188.813 26.942H193.62C193.9 26.942 194.148 26.7618 194.235 26.4955L195.72 21.9238Z" fill="#E57443"/>
<rect x="0.823242" y="71.2275" width="240" height="60" rx="30" fill="#028DD8" fill-opacity="0.1"/>
<path d="M58.113 98.5713C58.113 99.2139 57.8851 99.7448 57.4294 100.164C56.9737 100.583 56.3562 100.85 55.5769 100.964V101.005C56.4929 101.096 57.1947 101.349 57.6823 101.764C58.1745 102.178 58.4206 102.718 58.4206 103.384C58.4206 104.304 58.0469 105.031 57.2995 105.564C56.5567 106.098 55.5267 106.364 54.2097 106.364C52.7422 106.364 51.5642 106.184 50.6755 105.824V104.047C51.1039 104.252 51.6052 104.414 52.1794 104.532C52.7582 104.646 53.2982 104.703 53.7995 104.703C55.4812 104.703 56.322 104.213 56.322 103.233C56.322 102.791 56.0508 102.452 55.5085 102.215C54.9708 101.978 54.1732 101.859 53.1159 101.859H52.1794V100.205H53.0202C54.0775 100.205 54.8477 100.105 55.3308 99.9043C55.8139 99.7038 56.0554 99.3711 56.0554 98.9062C56.0554 98.5645 55.9027 98.2933 55.5974 98.0928C55.2966 97.8877 54.8432 97.7852 54.237 97.7852C53.2982 97.7852 52.3913 98.0563 51.5163 98.5986L50.5935 97.1836C51.1631 96.8053 51.767 96.5296 52.405 96.3564C53.043 96.1787 53.7517 96.0898 54.531 96.0898C55.6202 96.0898 56.4883 96.3177 57.1355 96.7734C57.7872 97.2292 58.113 97.8285 58.113 98.5713ZM69.4981 101.217C69.4981 102.871 69.088 104.143 68.2677 105.031C67.4473 105.92 66.2716 106.364 64.7403 106.364C63.2091 106.364 62.0333 105.92 61.213 105.031C60.3927 104.143 59.9825 102.867 59.9825 101.203C59.9825 99.5397 60.3927 98.2705 61.213 97.3955C62.0378 96.516 63.2182 96.0762 64.754 96.0762C66.2898 96.0762 67.4633 96.5182 68.2745 97.4023C69.0902 98.2865 69.4981 99.5579 69.4981 101.217ZM62.2042 101.217C62.2042 102.333 62.4161 103.174 62.8399 103.739C63.2638 104.304 63.8972 104.587 64.7403 104.587C66.4311 104.587 67.2764 103.464 67.2764 101.217C67.2764 98.9655 66.4356 97.8398 64.754 97.8398C63.9109 97.8398 63.2751 98.1247 62.8468 98.6943C62.4184 99.2594 62.2042 100.1 62.2042 101.217ZM79.6186 106.228H77.5063V97.9971H75.059L74.9496 98.9131C74.6671 101.242 74.4164 102.878 74.1977 103.821C73.9835 104.76 73.6691 105.421 73.2543 105.804C72.8396 106.187 72.2791 106.373 71.5727 106.364C71.1899 106.364 70.8526 106.314 70.561 106.214V104.478C70.8253 104.569 71.0737 104.614 71.3061 104.614C71.5476 104.614 71.739 104.505 71.8803 104.286C72.0216 104.063 72.1538 103.653 72.2768 103.056C72.4044 102.454 72.5707 101.472 72.7758 100.109C72.9855 98.7422 73.1632 97.4502 73.309 96.2334H79.6186V106.228ZM91.3523 101.217C91.3523 102.871 90.9422 104.143 90.1219 105.031C89.3016 105.92 88.1258 106.364 86.5945 106.364C85.0633 106.364 83.8875 105.92 83.0672 105.031C82.2469 104.143 81.8367 102.867 81.8367 101.203C81.8367 99.5397 82.2469 98.2705 83.0672 97.3955C83.8921 96.516 85.0724 96.0762 86.6082 96.0762C88.144 96.0762 89.3175 96.5182 90.1287 97.4023C90.9445 98.2865 91.3523 99.5579 91.3523 101.217ZM84.0584 101.217C84.0584 102.333 84.2703 103.174 84.6941 103.739C85.118 104.304 85.7514 104.587 86.5945 104.587C88.2853 104.587 89.1307 103.464 89.1307 101.217C89.1307 98.9655 88.2898 97.8398 86.6082 97.8398C85.7651 97.8398 85.1294 98.1247 84.701 98.6943C84.2726 99.2594 84.0584 100.1 84.0584 101.217ZM97.4191 106.228H95.3V97.9971H92.5861V96.2334H100.133V97.9971H97.4191V106.228ZM110.882 101.217C110.882 102.871 110.472 104.143 109.652 105.031C108.832 105.92 107.656 106.364 106.125 106.364C104.593 106.364 103.418 105.92 102.597 105.031C101.777 104.143 101.367 102.867 101.367 101.203C101.367 99.5397 101.777 98.2705 102.597 97.3955C103.422 96.516 104.602 96.0762 106.138 96.0762C107.674 96.0762 108.848 96.5182 109.659 97.4023C110.474 98.2865 110.882 99.5579 110.882 101.217ZM103.588 101.217C103.588 102.333 103.8 103.174 104.224 103.739C104.648 104.304 105.281 104.587 106.125 104.587C107.815 104.587 108.661 103.464 108.661 101.217C108.661 98.9655 107.82 97.8398 106.138 97.8398C105.295 97.8398 104.659 98.1247 104.231 98.6943C103.803 99.2594 103.588 100.1 103.588 101.217Z" fill="#028DD8"/>
<path opacity="0.15" d="M135.72 93.1191C135.914 92.5237 136.756 92.5237 136.95 93.1191L138.435 97.6908C138.522 97.9571 138.77 98.1374 139.05 98.1374H143.857C144.483 98.1374 144.743 98.9384 144.236 99.3064L140.348 102.132C140.121 102.296 140.026 102.588 140.113 102.854L141.598 107.426C141.792 108.021 141.11 108.517 140.604 108.149L136.715 105.323C136.488 105.159 136.182 105.159 135.955 105.323L132.066 108.149C131.56 108.517 130.878 108.021 131.072 107.426L132.557 102.854C132.644 102.588 132.549 102.296 132.322 102.132L128.433 99.3064C127.927 98.9384 128.187 98.1374 128.813 98.1374H133.62C133.9 98.1374 134.148 97.9571 134.235 97.6908L135.72 93.1191Z" fill="#E57443"/>
<path opacity="0.15" d="M155.72 93.1191C155.914 92.5237 156.756 92.5237 156.95 93.1191L158.435 97.6908C158.522 97.9571 158.77 98.1374 159.05 98.1374H163.857C164.483 98.1374 164.743 98.9384 164.236 99.3064L160.348 102.132C160.121 102.296 160.026 102.588 160.113 102.854L161.598 107.426C161.792 108.021 161.11 108.517 160.604 108.149L156.715 105.323C156.488 105.159 156.182 105.159 155.955 105.323L152.066 108.149C151.56 108.517 150.878 108.021 151.072 107.426L152.557 102.854C152.644 102.588 152.549 102.296 152.322 102.132L148.433 99.3064C147.927 98.9384 148.187 98.1374 148.813 98.1374H153.62C153.9 98.1374 154.148 97.9571 154.235 97.6908L155.72 93.1191Z" fill="#E57443"/>
<path d="M175.72 93.1191C175.914 92.5237 176.756 92.5237 176.95 93.1191L178.435 97.6908C178.522 97.9571 178.77 98.1374 179.05 98.1374H183.857C184.483 98.1374 184.743 98.9384 184.236 99.3064L180.348 102.132C180.121 102.296 180.026 102.588 180.113 102.854L181.598 107.426C181.792 108.021 181.11 108.517 180.604 108.149L176.715 105.323C176.488 105.159 176.182 105.159 175.955 105.323L172.066 108.149C171.56 108.517 170.878 108.021 171.072 107.426L172.557 102.854C172.644 102.588 172.549 102.296 172.322 102.132L168.433 99.3064C167.927 98.9384 168.187 98.1374 168.813 98.1374H173.62C173.9 98.1374 174.148 97.9571 174.235 97.6908L175.72 93.1191Z" fill="#E57443"/>
<path d="M195.72 93.1191C195.914 92.5237 196.756 92.5237 196.95 93.1191L198.435 97.6908C198.522 97.9571 198.77 98.1374 199.05 98.1374H203.857C204.483 98.1374 204.743 98.9384 204.236 99.3064L200.348 102.132C200.121 102.296 200.026 102.588 200.113 102.854L201.598 107.426C201.792 108.021 201.11 108.517 200.604 108.149L196.715 105.323C196.488 105.159 196.182 105.159 195.955 105.323L192.066 108.149C191.56 108.517 190.878 108.021 191.072 107.426L192.557 102.854C192.644 102.588 192.549 102.296 192.322 102.132L188.433 99.3064C187.927 98.9384 188.187 98.1374 188.813 98.1374H193.62C193.9 98.1374 194.148 97.9571 194.235 97.6908L195.72 93.1191Z" fill="#E57443"/>
<rect x="0.823242" y="141.228" width="240" height="60" rx="30" fill="#028DD8" fill-opacity="0.1"/>
<path d="M54.2969 176.228H52.1846V167.997H48.5069V176.228H46.3877V166.233H54.2969V176.228ZM64.8686 176.228H62.7563V167.997H60.309L60.1996 168.913C59.9171 171.242 59.6664 172.878 59.4477 173.821C59.2335 174.76 58.919 175.421 58.5043 175.804C58.0896 176.187 57.529 176.373 56.8227 176.364C56.4398 176.364 56.1026 176.314 55.8109 176.214V174.478C56.0753 174.569 56.3236 174.614 56.5561 174.614C56.7976 174.614 56.989 174.505 57.1303 174.286C57.2716 174.063 57.4037 173.653 57.5268 173.056C57.6544 172.454 57.8207 171.472 58.0258 170.109C58.2354 168.742 58.4132 167.45 58.559 166.233H64.8686V176.228ZM73.6492 176.228L72.9246 173.849H69.281L68.5564 176.228H66.2732L69.8006 166.192H72.3914L75.9324 176.228H73.6492ZM72.4187 172.071C71.7488 169.916 71.3705 168.697 71.2839 168.414C71.2019 168.132 71.1427 167.908 71.1062 167.744C70.9558 168.327 70.5252 169.77 69.8142 172.071H72.4187ZM81.1925 176.228H79.0734V167.997H76.3595V166.233H83.9064V167.997H81.1925V176.228ZM85.5845 166.233H87.4917V171.06L87.4643 172.352L87.396 173.821H87.437L92.0513 166.233H94.5874V176.228H92.7007V171.429C92.7007 170.786 92.7417 169.834 92.8237 168.571H92.769L88.1343 176.228H85.5845V166.233ZM105.439 176.228H103.327V171.914H99.369V176.228H97.2498V166.233H99.369V170.15H103.327V166.233H105.439V176.228ZM114.227 176.228L113.502 173.849H109.859L109.134 176.228H106.851L110.378 166.192H112.969L116.51 176.228H114.227ZM112.996 172.071C112.326 169.916 111.948 168.697 111.862 168.414C111.779 168.132 111.72 167.908 111.684 167.744C111.533 168.327 111.103 169.77 110.392 172.071H112.996Z" fill="#028DD8"/>
<path opacity="0.15" d="M135.72 163.119C135.914 162.524 136.756 162.524 136.95 163.119L138.435 167.691C138.522 167.957 138.77 168.137 139.05 168.137H143.857C144.483 168.137 144.743 168.938 144.236 169.306L140.348 172.132C140.121 172.296 140.026 172.588 140.113 172.854L141.598 177.426C141.792 178.021 141.11 178.517 140.604 178.149L136.715 175.323C136.488 175.159 136.182 175.159 135.955 175.323L132.066 178.149C131.56 178.517 130.878 178.021 131.072 177.426L132.557 172.854C132.644 172.588 132.549 172.296 132.322 172.132L128.433 169.306C127.927 168.938 128.187 168.137 128.813 168.137H133.62C133.9 168.137 134.148 167.957 134.235 167.691L135.72 163.119Z" fill="#E57443"/>
<path d="M155.72 163.119C155.914 162.524 156.756 162.524 156.95 163.119L158.435 167.691C158.522 167.957 158.77 168.137 159.05 168.137H163.857C164.483 168.137 164.743 168.938 164.236 169.306L160.348 172.132C160.121 172.296 160.026 172.588 160.113 172.854L161.598 177.426C161.792 178.021 161.11 178.517 160.604 178.149L156.715 175.323C156.488 175.159 156.182 175.159 155.955 175.323L152.066 178.149C151.56 178.517 150.878 178.021 151.072 177.426L152.557 172.854C152.644 172.588 152.549 172.296 152.322 172.132L148.433 169.306C147.927 168.938 148.187 168.137 148.813 168.137H153.62C153.9 168.137 154.148 167.957 154.235 167.691L155.72 163.119Z" fill="#E57443"/>
<path d="M175.72 163.119C175.914 162.524 176.756 162.524 176.95 163.119L178.435 167.691C178.522 167.957 178.77 168.137 179.05 168.137H183.857C184.483 168.137 184.743 168.938 184.236 169.306L180.348 172.132C180.121 172.296 180.026 172.588 180.113 172.854L181.598 177.426C181.792 178.021 181.11 178.517 180.604 178.149L176.715 175.323C176.488 175.159 176.182 175.159 175.955 175.323L172.066 178.149C171.56 178.517 170.878 178.021 171.072 177.426L172.557 172.854C172.644 172.588 172.549 172.296 172.322 172.132L168.433 169.306C167.927 168.938 168.187 168.137 168.813 168.137H173.62C173.9 168.137 174.148 167.957 174.235 167.691L175.72 163.119Z" fill="#E57443"/>
<path d="M195.72 163.119C195.914 162.524 196.756 162.524 196.95 163.119L198.435 167.691C198.522 167.957 198.77 168.137 199.05 168.137H203.857C204.483 168.137 204.743 168.938 204.236 169.306L200.348 172.132C200.121 172.296 200.026 172.588 200.113 172.854L201.598 177.426C201.792 178.021 201.11 178.517 200.604 178.149L196.715 175.323C196.488 175.159 196.182 175.159 195.955 175.323L192.066 178.149C191.56 178.517 190.878 178.021 191.072 177.426L192.557 172.854C192.644 172.588 192.549 172.296 192.322 172.132L188.433 169.306C187.927 168.938 188.187 168.137 188.813 168.137H193.62C193.9 168.137 194.148 167.957 194.235 167.691L195.72 163.119Z" fill="#E57443"/>
</svg>
